<svg width="48" height="48" viewBox="0 0 48 48" xmlns="http://www.w3.org/2000/svg"><title>ECD7F718-B4DB-40AF-B5DF-F8C1F835657B</title><g fill="none" fill-rule="evenodd"><path fill="#E5E7EB" d="M0 0h48v48H0z"/><g fill="#C1C4CA"><path d="M25.969 30.393h-6.89a1.477 1.477 0 0 1-1.477-1.475v-9.832c0-.815.663-1.475 1.476-1.475h9.844c.815 0 1.476.662 1.476 1.475v6.883a.491.491 0 1 1-.984 0v-6.883a.492.492 0 0 0-.492-.492h-9.844a.492.492 0 0 0-.492.492v9.832c0 .272.221.492.492.492h6.89a.491.491 0 1 1 0 .983z"/><path d="M18.094 27.443a.492.492 0 0 1-.348-.84l2.452-2.448a1.475 1.475 0 0 1 1.703-.277l2.67 1.334c.189.095.416.058.566-.092l4.42-4.416a.493.493 0 0 1 .697.696l-4.42 4.416c-.45.449-1.134.56-1.703.276l-2.67-1.333a.487.487 0 0 0-.566.092l-2.454 2.448a.486.486 0 0 1-.347.144zM22.031 22.526a1.478 1.478 0 0 1-1.476-1.475c0-.813.663-1.475 1.476-1.475.814 0 1.477.662 1.477 1.475 0 .813-.663 1.475-1.477 1.475zm0-1.967a.493.493 0 0 0-.492.492.493.493 0 0 0 .984 0 .493.493 0 0 0-.492-.492zM27.937 30.393a.491.491 0 0 1-.492-.491v-2.95a.491.491 0 1 1 .985 0v2.95c0 .271-.22.491-.493.491z"/><path d="M29.906 28.426a.49.49 0 0 1-.337-.133l-1.632-1.53-1.631 1.531a.492.492 0 0 1-.674-.716l1.726-1.62a.747.747 0 0 1 1.16 0l1.725 1.62a.49.49 0 0 1-.337.848z"/></g></g></svg>