<?xml version="1.0" encoding="UTF-8"?>
<svg width="24px" height="24px" viewBox="0 0 24 24" version="1.1" xmlns="http://www.w3.org/2000/svg" xmlns:xlink="http://www.w3.org/1999/xlink">
    <!-- Generator: Sketch 42 (36781) - http://www.bohemiancoding.com/sketch -->
    <title>icon_wechat_pay</title>
    <desc>Created with Sketch.</desc>
    <defs></defs>
    <g id="官网价格" stroke="none" stroke-width="1" fill="none" fill-rule="evenodd">
        <g id="01-05支付版本费用_尊享版" transform="translate(-710.000000, -455.000000)">
            <g id="btn" transform="translate(700.000000, 447.000000)">
                <g id="icon_wechat_pay" transform="translate(10.000000, 8.000000)">
                    <path d="M3.72809302,0.134206897 L20.2847442,0.134206897 C22.3070233,0.134206897 23.9616279,1.7697931 23.9616279,3.76882759 L23.9616279,20.2955862 C23.9616279,22.2947586 22.3070233,23.9303448 20.2847442,23.9303448 L3.72809302,23.9303448 C1.70567442,23.9303448 0.0512093023,22.2947586 0.0512093023,20.2955862 L0.0512093023,3.76882759 C0.0512093023,1.7697931 1.70567442,0.134206897 3.72809302,0.134206897" id="Fill-1" fill="#FFFFFF"></path>
                    <path d="M8.12274419,3.95489655 C8.42818605,3.92041379 8.73948837,3.90193103 9.05539535,3.90068966 L9.12781395,3.90068966 C9.44386047,3.90206897 9.75655814,3.92027586 10.0639535,3.95489655 C10.1881395,3.96896552 10.3114884,3.98593103 10.434,4.00510345 C10.5306977,4.02027586 10.6268372,4.03696552 10.7224186,4.05531034 C10.8034884,4.07075862 10.8841395,4.08758621 10.9643721,4.10537931 C11.0359535,4.12124138 11.1071163,4.13793103 11.1777209,4.15558621 C11.2417674,4.17158621 11.3052558,4.18827586 11.3686047,4.20565517 C11.4273488,4.2217931 11.485814,4.23848276 11.544,4.25586207 C11.5984186,4.272 11.6526977,4.28882759 11.7064186,4.30593103 C11.7573488,4.3222069 11.8078605,4.33903448 11.8582326,4.35613793 C11.9059535,4.37241379 11.9535349,4.38924138 12.0006977,4.4062069 C12.045907,4.42262069 12.0908372,4.43944828 12.1356279,4.45641379 C12.1784651,4.47282759 12.2211628,4.48951724 12.2635814,4.50662069 C12.3046047,4.52303448 12.3452093,4.53972414 12.385814,4.55668966 C12.4250233,4.57324138 12.4639535,4.58993103 12.5027442,4.60689655 C12.5402791,4.62344828 12.577814,4.64 12.6150698,4.65710345 C12.6510698,4.67351724 12.6866512,4.69034483 12.7222326,4.70717241 C12.7568372,4.72358621 12.7911628,4.74041379 12.8254884,4.75737931 C12.8589767,4.7737931 12.8923256,4.79048276 12.9253953,4.80744828 C12.9577674,4.82413793 12.9902791,4.84068966 13.0223721,4.85765517 C13.0534884,4.87406897 13.0844651,4.89089655 13.1153023,4.90772414 C13.1454419,4.92427586 13.1755814,4.94110345 13.2054419,4.95793103 C13.2348837,4.97462069 13.264186,4.99117241 13.2933488,5.00813793 C13.321814,5.02468966 13.3501395,5.04137931 13.378186,5.0582069 C13.405814,5.07475862 13.4331628,5.09158621 13.4605116,5.10841379 C13.4874419,5.12496552 13.5145116,5.14165517 13.5411628,5.15862069 C13.5672558,5.17503448 13.5930698,5.19186207 13.6188837,5.20868966 C13.6442791,5.22524138 13.6695349,5.24193103 13.6947907,5.25889655 C13.7196279,5.27544828 13.7446047,5.292 13.7691628,5.30896552 C13.7933023,5.32551724 13.8170233,5.34234483 13.8407442,5.35917241 C13.8643256,5.37572414 13.887907,5.39241379 13.9112093,5.40924138 C13.9342326,5.42593103 13.9569767,5.44262069 13.9797209,5.45944828 C14.0020465,5.476 14.0243721,5.49282759 14.0464186,5.50965517 C14.0684651,5.5262069 14.0903721,5.54289655 14.112,5.55972414 C14.1333488,5.57627586 14.1542791,5.59310345 14.1753488,5.60993103 C14.1964186,5.62662069 14.2174884,5.64317241 14.2381395,5.66 C14.2585116,5.67655172 14.2784651,5.69351724 14.2984186,5.7102069 C14.3185116,5.72689655 14.3384651,5.74344828 14.3582791,5.76041379 C14.3776744,5.77696552 14.3967907,5.79365517 14.4160465,5.81048276 C14.4351628,5.82717241 14.4541395,5.84386207 14.4729767,5.86068966 C14.4916744,5.87724138 14.5099535,5.89406897 14.5283721,5.91075862 C14.5466512,5.92744828 14.5647907,5.94413793 14.5827907,5.96096552 C14.6006512,5.97751724 14.6182326,5.99434483 14.635814,6.01117241 C14.6532558,6.02772414 14.6706977,6.04441379 14.6878605,6.06124138 C14.7048837,6.07793103 14.721907,6.09462069 14.7386512,6.11144828 C14.7553953,6.128 14.772,6.14468966 14.7884651,6.16151724 C14.8047907,6.1782069 14.8209767,6.19489655 14.8371628,6.21172414 C14.8530698,6.22827586 14.8689767,6.24496552 14.8848837,6.2617931 C14.9005116,6.27848276 14.916,6.29517241 14.9313488,6.312 C14.9466977,6.32868966 14.9620465,6.34537931 14.9771163,6.36206897 C14.9920465,6.37875862 15.0069767,6.39558621 15.0216279,6.41227586 C15.0364186,6.42896552 15.0510698,6.44565517 15.0655814,6.46248276 C15.079814,6.47903448 15.0940465,6.49586207 15.1081395,6.51255172 C15.1222326,6.52924138 15.1363256,6.54593103 15.1502791,6.56275862 C15.1639535,6.57931034 15.1773488,6.59613793 15.1908837,6.61296552 C15.2044186,6.62965517 15.2182326,6.6462069 15.2314884,6.66303448 C15.2446047,6.67958621 15.2573023,6.69655172 15.2702791,6.71324138 C15.2832558,6.72993103 15.2962326,6.74662069 15.3090698,6.76331034 C15.3216279,6.78 15.3337674,6.79682759 15.346186,6.81351724 C15.3586047,6.8302069 15.3710233,6.84689655 15.3831628,6.86358621 C15.3953023,6.88027586 15.4070233,6.89710345 15.4188837,6.9137931 C15.4307442,6.93048276 15.4424651,6.94717241 15.4540465,6.964 C15.4656279,6.98055172 15.4772093,6.99737931 15.4885116,7.01406897 C15.499814,7.03075862 15.5108372,7.04744828 15.522,7.06427586 C15.5330233,7.08096552 15.5443256,7.09751724 15.5552093,7.11434483 C15.5659535,7.13103448 15.5762791,7.14786207 15.5868837,7.16455172 C15.5974884,7.18124138 15.6082326,7.19793103 15.6185581,7.21475862 C15.6288837,7.23131034 15.6387907,7.24813793 15.6488372,7.26482759 C15.6590233,7.28151724 15.6690698,7.2982069 15.6789767,7.31503448 C15.6887442,7.33172414 15.6985116,7.34841379 15.7081395,7.36510345 C15.7177674,7.3817931 15.7271163,7.39862069 15.7366047,7.41531034 C15.7459535,7.432 15.7555814,7.44868966 15.7647907,7.46551724 C15.7738605,7.48206897 15.7825116,7.49889655 15.7915814,7.51558621 C15.8003721,7.53227586 15.8095814,7.54896552 15.8183721,7.5657931 C15.8270233,7.58234483 15.8353953,7.59917241 15.843907,7.61586207 C15.8524186,7.63255172 15.8607907,7.64924138 15.8690233,7.66606897 C15.8773953,7.68275862 15.8856279,7.69944828 15.8937209,7.71613793 C15.901814,7.73282759 15.9094884,7.74965517 15.9173023,7.76634483 C15.9251163,7.78303448 15.9332093,7.79972414 15.9408837,7.81655172 C15.9485581,7.83310345 15.955814,7.84993103 15.9632093,7.86662069 C15.9706047,7.88331034 15.978,7.9 15.9852558,7.91682759 C15.9923721,7.93351724 15.9996279,7.9502069 16.0067442,7.96689655 C16.0137209,7.98358621 16.0204186,8.00041379 16.0272558,8.01710345 C16.034093,8.0337931 16.0410698,8.05048276 16.0477674,8.06731034 C16.0543256,8.08386207 16.0604651,8.10068966 16.0668837,8.11737931 C16.0733023,8.13406897 16.0795814,8.15075862 16.0858605,8.16758621 C16.0921395,8.18427586 16.0982791,8.20096552 16.1044186,8.21765517 C16.1102791,8.23434483 16.116,8.25117241 16.1218605,8.26786207 C16.1275814,8.28455172 16.1337209,8.30124138 16.1393023,8.31806897 C16.1448837,8.33462069 16.150186,8.35144828 16.1556279,8.36813793 C16.1610698,8.38482759 16.1663721,8.40165517 16.1716744,8.41834483 C16.1768372,8.43503448 16.1822791,8.45172414 16.1873023,8.46841379 C16.1923256,8.48510345 16.1970698,8.50193103 16.201814,8.51862069 C16.2066977,8.53531034 16.2117209,8.552 16.2163256,8.56868966 C16.2210698,8.58537931 16.2255349,8.6022069 16.23,8.61889655 C16.2344651,8.63558621 16.2387907,8.65227586 16.2431163,8.66910345 C16.2474419,8.6857931 16.2520465,8.70248276 16.2562326,8.71917241 C16.2602791,8.73586207 16.263907,8.75268966 16.267814,8.76937931 C16.2717209,8.78606897 16.2756279,8.80275862 16.2793953,8.81958621 C16.281907,8.83034483 16.2845581,8.84124138 16.2869302,8.852 L16.2869302,8.85241379 C16.1581395,8.8382069 16.0286512,8.82675862 15.8984651,8.81958621 C15.7993953,8.81406897 15.7000465,8.81089655 15.6001395,8.81089655 C15.4865581,8.81089655 15.3739535,8.81393103 15.262186,8.81958621 C15.0760465,8.82882759 14.8924186,8.84565517 14.7115814,8.86965517 C14.6042791,8.88386207 14.4979535,8.90055172 14.3927442,8.91986207 C14.31,8.93503448 14.2279535,8.95172414 14.1464651,8.96993103 C14.076,8.98565517 14.0059535,9.0022069 13.9367442,9.02013793 C13.8753488,9.03586207 13.8146512,9.05268966 13.7542326,9.0702069 C13.6991163,9.0862069 13.6442791,9.10303448 13.59,9.12041379 C13.5394884,9.13655172 13.4892558,9.15324138 13.4394419,9.17048276 C13.3926977,9.18675862 13.3463721,9.20344828 13.300186,9.22068966 C13.2566512,9.23696552 13.2132558,9.25365517 13.1702791,9.27089655 C13.1292558,9.28717241 13.0885116,9.30386207 13.0480465,9.32110345 C13.0093953,9.33737931 12.9707442,9.35406897 12.9325116,9.37117241 C12.895814,9.38758621 12.8591163,9.40413793 12.8228372,9.42137931 C12.788093,9.43765517 12.7536279,9.45448276 12.7194419,9.47144828 C12.686093,9.48786207 12.6531628,9.50468966 12.6203721,9.52165517 C12.5884186,9.53806897 12.5566047,9.55475862 12.5250698,9.57172414 C12.4942326,9.58827586 12.4635349,9.60482759 12.4331163,9.62193103 C12.403814,9.63834483 12.3749302,9.65517241 12.345907,9.672 C12.3175814,9.68855172 12.2895349,9.70524138 12.2616279,9.7222069 C12.2341395,9.73875862 12.2066512,9.75544828 12.1795814,9.77241379 C12.1532093,9.78882759 12.1271163,9.80565517 12.1010233,9.82248276 C12.0754884,9.83903448 12.0502326,9.85586207 12.0249767,9.87268966 C12.0001395,9.88924138 11.9753023,9.90593103 11.9507442,9.92289655 C11.9268837,9.93931034 11.9033023,9.95613793 11.8797209,9.97296552 C11.8564186,9.98951724 11.8332558,10.0062069 11.8103721,10.0231724 C11.7877674,10.0397241 11.7651628,10.0564138 11.7428372,10.0732414 C11.7209302,10.0897931 11.6994419,10.1066207 11.677814,10.1234483 C11.6563256,10.1401379 11.6348372,10.1565517 11.6136279,10.1735172 C11.5929767,10.190069 11.5727442,10.2070345 11.5523721,10.2237241 C11.5322791,10.2404138 11.511907,10.2569655 11.4919535,10.273931 C11.4724186,10.2904828 11.4530233,10.3071724 11.4336279,10.324 C11.4145116,10.3405517 11.3955349,10.3572414 11.3765581,10.3742069 C11.3578605,10.3907586 11.3394419,10.4074483 11.3210233,10.4242759 C11.3027442,10.4409655 11.2847442,10.4576552 11.2668837,10.4744828 C11.2491628,10.4910345 11.2314419,10.5077241 11.2138605,10.5245517 C11.1966977,10.5412414 11.1796744,10.557931 11.1626512,10.5747586 C11.1456279,10.5914483 11.1287442,10.6081379 11.1121395,10.6249655 C11.0956744,10.6415172 11.0794884,10.6583448 11.0633023,10.6750345 C11.0472558,10.6917241 11.0310698,10.7084138 11.0151628,10.7252414 C10.9995349,10.7417931 10.984186,10.7586207 10.9686977,10.7754483 C10.9534884,10.792 10.9381395,10.8086897 10.9229302,10.8255172 C10.908,10.842069 10.8933488,10.8588966 10.8785581,10.8757241 C10.863907,10.8922759 10.8493953,10.9089655 10.8348837,10.9257931 C10.8206512,10.9424828 10.8065581,10.9591724 10.7924651,10.976 C10.7786512,10.9925517 10.7646977,11.0093793 10.7510233,11.026069 C10.7374884,11.0427586 10.723814,11.0594483 10.7104186,11.0762759 C10.6971628,11.0929655 10.6840465,11.1096552 10.6709302,11.1264828 C10.6579535,11.1430345 10.6449767,11.1597241 10.6321395,11.1765517 C10.6194419,11.1932414 10.6070233,11.209931 10.5946047,11.2267586 C10.582186,11.2434483 10.5694884,11.26 10.5573488,11.2768276 C10.5452093,11.2933793 10.5334884,11.3103448 10.5216279,11.3270345 C10.5097674,11.3437241 10.4977674,11.3602759 10.4860465,11.3772414 C10.4746047,11.3937931 10.4633023,11.4106207 10.452,11.4273103 C10.4406977,11.444 10.4293953,11.4606897 10.4183721,11.4775172 C10.4072093,11.494069 10.3964651,11.5108966 10.3855814,11.5275862 C10.3748372,11.5442759 10.3642326,11.5609655 10.3536279,11.5777931 C10.3431628,11.5944828 10.3325581,11.6111724 10.322093,11.6278621 C10.311907,11.6445517 10.302,11.6613793 10.2919535,11.678069 C10.281907,11.6947586 10.2715814,11.7114483 10.2616744,11.7282759 C10.2520465,11.7448276 10.2426977,11.7616552 10.2330698,11.7783448 C10.2235814,11.7950345 10.2139535,11.8117241 10.2046047,11.8285517 C10.1952558,11.8451034 10.186186,11.861931 10.1769767,11.8786207 C10.167907,11.8953103 10.1589767,11.912 10.150186,11.9288276 C10.1412558,11.9455172 10.132186,11.9622069 10.1235349,11.9790345 C10.1148837,11.9955862 10.1067907,12.0124138 10.0982791,12.0291034 C10.089907,12.0457931 10.0813953,12.0624828 10.0731628,12.0793103 C10.0649302,12.096 10.0569767,12.1126897 10.0490233,12.1293793 C10.0410698,12.146069 10.0331163,12.1628966 10.0254419,12.1795862 C10.0176279,12.1962759 10.0096744,12.2129655 10.0021395,12.2297931 C9.99460465,12.2463448 9.98734884,12.2631724 9.98009302,12.2798621 C9.97269767,12.2965517 9.96516279,12.3132414 9.95804651,12.330069 C9.9507907,12.3466207 9.94395349,12.3634483 9.93697674,12.3801379 C9.93,12.3968276 9.92316279,12.4135172 9.91646512,12.4303448 C9.90976744,12.4470345 9.9027907,12.4637241 9.89623256,12.4804138 C9.88967442,12.4971034 9.88353488,12.513931 9.87725581,12.5306207 C9.87083721,12.5473103 9.8644186,12.564 9.85813953,12.5808276 C9.852,12.5975172 9.846,12.6142069 9.84013953,12.6308966 C9.83413953,12.6475862 9.8284186,12.6642759 9.82255814,12.6811034 C9.81683721,12.6977931 9.81069767,12.7144828 9.80511628,12.7311724 C9.79953488,12.7478621 9.79437209,12.7646897 9.78906977,12.7813793 C9.78362791,12.798069 9.77818605,12.8147586 9.77302326,12.8315862 C9.76772093,12.8482759 9.7624186,12.8648276 9.75739535,12.8816552 C9.75237209,12.8983448 9.74776744,12.9150345 9.74288372,12.9318621 C9.738,12.9485517 9.73297674,12.9652414 9.72823256,12.981931 C9.72362791,12.9986207 9.71916279,13.0154483 9.71469767,13.0321379 C9.71023256,13.0488276 9.70590698,13.0655172 9.7015814,13.0823448 C9.69725581,13.0990345 9.69265116,13.1155862 9.68846512,13.1324138 C9.68427907,13.1491034 9.68065116,13.165931 9.67674419,13.1826207 C9.67283721,13.1993103 9.6687907,13.216 9.66502326,13.2326897 C9.66111628,13.2493793 9.65734884,13.266069 9.65372093,13.2828966 C9.65009302,13.2995862 9.64688372,13.3162759 9.64339535,13.3329655 C9.63990698,13.3496552 9.6364186,13.3663448 9.63306977,13.3831724 C9.62986047,13.3998621 9.62665116,13.4165517 9.6235814,13.4333793 C9.62051163,13.450069 9.6175814,13.4667586 9.61465116,13.4834483 C9.61172093,13.5001379 9.60851163,13.5168276 9.60572093,13.5336552 C9.60293023,13.5503448 9.60055814,13.5670345 9.59804651,13.5838621 C9.59539535,13.6005517 9.59288372,13.6172414 9.59051163,13.633931 C9.588,13.6506207 9.58534884,13.6673103 9.58297674,13.6841379 C9.58074419,13.7006897 9.57893023,13.7175172 9.57683721,13.7342069 C9.57474419,13.7508966 9.57265116,13.7675862 9.57069767,13.7844138 C9.56874419,13.8011034 9.56665116,13.8177931 9.56497674,13.8344828 C9.56316279,13.8511724 9.56176744,13.868 9.56023256,13.8846897 C9.55855814,13.9013793 9.55688372,13.918069 9.55534884,13.9347586 C9.55395349,13.9515862 9.55255814,13.9682759 9.55116279,13.9849655 C9.54990698,14.0016552 9.54893023,14.0184828 9.54781395,14.0351724 C9.54669767,14.0518621 9.54530233,14.0685517 9.54446512,14.0852414 C9.54348837,14.101931 9.54265116,14.1187586 9.54181395,14.1354483 C9.54097674,14.1521379 9.5404186,14.1688276 9.53986047,14.1856552 C9.53916279,14.2023448 9.53832558,14.2190345 9.53776744,14.2357241 C9.53734884,14.2524138 9.53706977,14.2691034 9.5367907,14.285931 C9.53651163,14.3026207 9.53623256,14.3193103 9.53609302,14.336 C9.53595349,14.3526897 9.53539535,14.3693793 9.53539535,14.3862069 L9.53539535,14.3914483 C9.53539535,14.4063448 9.53539535,14.4213793 9.53553488,14.4362759 C9.53567442,14.4531034 9.53595349,14.4697931 9.53623256,14.4864828 C9.53651163,14.5031724 9.53706977,14.52 9.53748837,14.5366897 C9.53804651,14.5533793 9.53860465,14.570069 9.53930233,14.5867586 C9.54,14.6035862 9.54069767,14.6202759 9.54153488,14.6369655 C9.54237209,14.6536552 9.5432093,14.6703448 9.54432558,14.6871724 C9.54530233,14.7038621 9.5464186,14.7205517 9.54753488,14.7372414 C9.5487907,14.753931 9.55004651,14.7706207 9.55144186,14.7873103 C9.55269767,14.8041379 9.55409302,14.8208276 9.55562791,14.8375172 C9.55716279,14.8542069 9.55883721,14.8710345 9.56051163,14.8877241 C9.56218605,14.9044138 9.56386047,14.9211034 9.56581395,14.9377931 C9.56762791,14.9546207 9.5695814,14.9713103 9.57153488,14.988 C9.57362791,15.0046897 9.57572093,15.0215172 9.57795349,15.0382069 C9.58004651,15.0548966 9.5824186,15.0715862 9.5847907,15.0882759 C9.58716279,15.1051034 9.58953488,15.1217931 9.59204651,15.1384828 C9.59455814,15.1551724 9.5972093,15.1718621 9.59986047,15.1885517 C9.60265116,15.2053793 9.60544186,15.222069 9.60823256,15.2387586 C9.61116279,15.2554483 9.61409302,15.2721379 9.61702326,15.2888276 C9.62009302,15.3056552 9.62330233,15.3223448 9.62651163,15.3390345 C9.62972093,15.3557241 9.63293023,15.3724138 9.63627907,15.3891034 C9.63962791,15.405931 9.64311628,15.4226207 9.64660465,15.4393103 C9.65009302,15.456 9.65372093,15.4728276 9.65748837,15.4895172 C9.66111628,15.5062069 9.66488372,15.5230345 9.6687907,15.5397241 C9.67269767,15.5564138 9.67660465,15.5731034 9.68065116,15.5897931 C9.68469767,15.6066207 9.68874419,15.6233103 9.69293023,15.64 C9.69711628,15.6566897 9.70144186,15.6733793 9.70576744,15.690069 C9.71009302,15.7068966 9.71455814,15.7235862 9.71902326,15.7402759 C9.72362791,15.7569655 9.72823256,15.7736552 9.73283721,15.7903448 C9.7375814,15.8071724 9.74232558,15.8238621 9.7472093,15.8405517 L9.7555814,15.8689655 C9.6355814,15.8783448 9.51516279,15.8857931 9.39418605,15.8906207 C9.29302326,15.8947586 9.19144186,15.8971034 9.0895814,15.8971034 C8.9907907,15.8971034 8.89409302,15.8948966 8.7992093,15.8906207 C8.59897674,15.881931 8.40627907,15.8644138 8.21651163,15.8405517 C8.10069767,15.825931 7.98586047,15.8091034 7.87130233,15.7903448 C7.776,15.7748966 7.68069767,15.757931 7.58497674,15.7402759 C7.49860465,15.7242759 7.41181395,15.7074483 7.32404651,15.690069 C7.24172093,15.6737931 7.15855814,15.6569655 7.07427907,15.64 C6.9927907,15.6234483 6.91032558,15.6066207 6.82646512,15.5897931 C6.74916279,15.5742069 6.67074419,15.5586207 6.5907907,15.5430345 L6.49632558,15.5897931 L6.39530233,15.64 L6.294,15.690069 L5.99051163,15.8405517 L5.88934884,15.8906207 L5.78818605,15.9408276 L5.68688372,15.9910345 L5.48455814,16.0913103 L5.28223256,16.1915862 L5.18106977,16.2417931 L5.07976744,16.2918621 L4.77627907,16.4423448 L4.67511628,16.4925517 L4.57395349,16.5426207 L4.4727907,16.5928276 L4.37148837,16.6428966 L4.27032558,16.6931034 L4.16916279,16.7431724 L4.09716279,16.7790345 L4.14293023,16.6428966 L4.15967442,16.5928276 L4.19344186,16.4925517 L4.2272093,16.3922759 L4.24409302,16.342069 L4.26097674,16.2918621 L4.27786047,16.2417931 L4.31148837,16.1415172 L4.32837209,16.0913103 L4.34525581,16.0411034 L4.36213953,15.9910345 L4.37902326,15.9408276 L4.42967442,15.7903448 L4.44655814,15.7402759 L4.46344186,15.690069 L4.49706977,15.5897931 L4.53083721,15.4895172 L4.54772093,15.4393103 L4.56460465,15.3891034 L4.58148837,15.3390345 L4.59837209,15.2888276 L4.632,15.1885517 L4.64888372,15.1384828 L4.66576744,15.0882759 L4.68265116,15.0382069 L4.69953488,14.988 L4.7164186,14.9377931 L4.75004651,14.8375172 L4.76693023,14.7873103 L4.78381395,14.7372414 L4.80069767,14.6871724 L4.81060465,14.6577931 C4.80055814,14.6508966 4.79065116,14.6438621 4.78060465,14.6369655 C4.75674419,14.6202759 4.73288372,14.6035862 4.70930233,14.5867586 C4.68572093,14.570069 4.6624186,14.5533793 4.63911628,14.5366897 C4.61609302,14.52 4.5932093,14.5033103 4.57046512,14.4864828 C4.54772093,14.4697931 4.52539535,14.4531034 4.50306977,14.4362759 C4.48088372,14.4197241 4.45883721,14.4030345 4.4367907,14.3862069 C4.41502326,14.3695172 4.39339535,14.3528276 4.37190698,14.336 C4.35055814,14.3194483 4.3292093,14.3026207 4.308,14.285931 C4.28706977,14.2692414 4.266,14.2525517 4.24534884,14.2357241 C4.22469767,14.2190345 4.20432558,14.2023448 4.18395349,14.1856552 C4.16372093,14.1689655 4.14362791,14.1522759 4.12367442,14.1354483 C4.10386047,14.1187586 4.08418605,14.102069 4.06451163,14.0852414 C4.04511628,14.0685517 4.02572093,14.0518621 4.00646512,14.0351724 C3.98734884,14.0184828 3.96823256,14.0017931 3.94939535,13.9849655 C3.93055814,13.9682759 3.912,13.9515862 3.89344186,13.9347586 C3.87516279,13.9182069 3.85688372,13.9015172 3.83874419,13.8846897 C3.82074419,13.868 3.80274419,13.8513103 3.78488372,13.8344828 C3.76716279,13.817931 3.7495814,13.8012414 3.732,13.7844138 C3.71469767,13.7677241 3.69739535,13.7510345 3.68023256,13.7342069 C3.6632093,13.7176552 3.64632558,13.7008276 3.6295814,13.6841379 C3.61283721,13.6674483 3.59623256,13.6507586 3.57976744,13.633931 C3.56344186,13.6172414 3.54711628,13.6005517 3.53093023,13.5838621 C3.51474419,13.5670345 3.49869767,13.5503448 3.4827907,13.5336552 C3.46702326,13.5169655 3.45153488,13.5002759 3.43604651,13.4834483 C3.42055814,13.4668966 3.40534884,13.450069 3.39,13.4333793 C3.37493023,13.4166897 3.35986047,13.4 3.34493023,13.3831724 C3.33,13.3664828 3.3152093,13.3497931 3.30055814,13.3329655 C3.28604651,13.3164138 3.27167442,13.2995862 3.25744186,13.2828966 C3.2432093,13.2662069 3.22897674,13.2495172 3.21502326,13.2326897 C3.20093023,13.216 3.18697674,13.1993103 3.17330233,13.1826207 C3.15962791,13.165931 3.14609302,13.1492414 3.13255814,13.1324138 C3.11930233,13.1157241 3.10604651,13.0990345 3.0927907,13.0823448 C3.07967442,13.0656552 3.06669767,13.0489655 3.05372093,13.0321379 C3.04088372,13.0154483 3.02804651,12.9987586 3.01534884,12.981931 C3.0027907,12.9653793 2.99051163,12.9485517 2.97823256,12.9318621 C2.96595349,12.9151724 2.95367442,12.8984828 2.94153488,12.8816552 C2.92953488,12.8649655 2.91753488,12.8482759 2.90567442,12.8315862 C2.89395349,12.8148966 2.88237209,12.7982069 2.8707907,12.7813793 C2.8592093,12.7646897 2.84790698,12.748 2.83660465,12.7311724 C2.82530233,12.7144828 2.814,12.697931 2.80297674,12.6811034 C2.79195349,12.6644138 2.7812093,12.6477241 2.77032558,12.6308966 C2.7595814,12.6142069 2.74897674,12.5975172 2.73851163,12.5808276 C2.72804651,12.5641379 2.71744186,12.5474483 2.70711628,12.5306207 C2.69693023,12.513931 2.68674419,12.4972414 2.67669767,12.4804138 C2.66665116,12.4638621 2.65688372,12.4470345 2.64711628,12.4303448 C2.63734884,12.4136552 2.6275814,12.3969655 2.61795349,12.3801379 C2.60846512,12.3634483 2.59911628,12.3467586 2.58976744,12.330069 C2.5804186,12.3133793 2.57134884,12.2965517 2.56227907,12.2798621 C2.5532093,12.2631724 2.544,12.2464828 2.5352093,12.2297931 C2.5264186,12.2131034 2.51776744,12.1964138 2.50911628,12.1795862 C2.50046512,12.1628966 2.49195349,12.1462069 2.4835814,12.1293793 C2.4752093,12.1126897 2.46683721,12.096 2.45860465,12.0793103 C2.45051163,12.0626207 2.44255814,12.045931 2.43460465,12.0291034 C2.42665116,12.0124138 2.41883721,11.9957241 2.41116279,11.9790345 C2.40334884,11.9623448 2.39567442,11.9456552 2.38813953,11.9288276 C2.38060465,11.9121379 2.37334884,11.8954483 2.36609302,11.8786207 C2.35883721,11.862069 2.3515814,11.8452414 2.34460465,11.8285517 C2.33748837,11.8118621 2.33037209,11.7951724 2.32353488,11.7783448 C2.31669767,11.7617931 2.31013953,11.7449655 2.30344186,11.7282759 C2.29674419,11.7115862 2.29018605,11.6947586 2.28376744,11.678069 C2.27734884,11.6613793 2.27106977,11.6446897 2.2647907,11.6278621 C2.25851163,11.6111724 2.25251163,11.5944828 2.24651163,11.5777931 C2.24051163,11.5611034 2.23437209,11.5444138 2.22851163,11.5275862 C2.2227907,11.5108966 2.2172093,11.4942069 2.21148837,11.4775172 C2.20590698,11.4608276 2.20032558,11.4441379 2.19502326,11.4273103 C2.1895814,11.4106207 2.18413953,11.393931 2.17883721,11.3772414 C2.17367442,11.3605517 2.16865116,11.3437241 2.16362791,11.3270345 C2.15860465,11.3103448 2.1535814,11.2936552 2.14869767,11.2768276 C2.14395349,11.2601379 2.13934884,11.2434483 2.13474419,11.2267586 C2.13,11.210069 2.12553488,11.1932414 2.12106977,11.1765517 C2.11660465,11.1598621 2.11213953,11.1431724 2.10795349,11.1264828 C2.10362791,11.1096552 2.0995814,11.0929655 2.09553488,11.0762759 C2.09148837,11.0595862 2.08744186,11.0428966 2.08353488,11.026069 C2.07962791,11.0093793 2.076,10.9926897 2.07237209,10.976 C2.06860465,10.9593103 2.06497674,10.9426207 2.06148837,10.9257931 C2.058,10.9091034 2.05451163,10.8924138 2.05116279,10.8757241 C2.04781395,10.8590345 2.04474419,10.8422069 2.04167442,10.8255172 C2.03846512,10.8088276 2.03525581,10.7921379 2.03232558,10.7754483 C2.02939535,10.7586207 2.02660465,10.741931 2.02381395,10.7252414 C2.02102326,10.7085517 2.01837209,10.6918621 2.01572093,10.6750345 C2.01306977,10.6583448 2.01055814,10.6416552 2.00818605,10.6249655 C2.00567442,10.6082759 2.00344186,10.5914483 2.0012093,10.5747586 C1.99897674,10.558069 1.99660465,10.5413793 1.99451163,10.5245517 C1.99255814,10.5078621 1.99060465,10.4911724 1.9887907,10.4744828 C1.98683721,10.4577931 1.98488372,10.4411034 1.9832093,10.4242759 C1.98139535,10.4075862 1.97986047,10.3908966 1.97832558,10.3742069 C1.9767907,10.3575172 1.97525581,10.3408276 1.97386047,10.324 C1.97246512,10.3073103 1.97106977,10.2906207 1.96995349,10.273931 C1.96869767,10.2572414 1.9675814,10.2404138 1.96660465,10.2237241 C1.96548837,10.2070345 1.96437209,10.1903448 1.96353488,10.1735172 C1.96255814,10.1568276 1.962,10.1401379 1.96116279,10.1234483 C1.96046512,10.1067586 1.95976744,10.090069 1.95906977,10.0732414 C1.95851163,10.0565517 1.95823256,10.0398621 1.95781395,10.0231724 C1.95739535,10.0063448 1.95711628,9.98965517 1.95669767,9.97296552 C1.95655814,9.95627586 1.9564186,9.93958621 1.95627907,9.92289655 C1.95627907,9.9142069 1.95613953,9.90565517 1.95613953,9.89710345 C1.95613953,9.88896552 1.9564186,9.88082759 1.9564186,9.87268966 C1.95655814,9.85586207 1.95697674,9.83931034 1.95725581,9.82248276 C1.95739535,9.8057931 1.95753488,9.78910345 1.95795349,9.77241379 C1.95837209,9.75558621 1.95865116,9.73889655 1.9592093,9.7222069 C1.95976744,9.70551724 1.96074419,9.68868966 1.9615814,9.672 C1.96227907,9.65531034 1.96283721,9.63862069 1.96381395,9.62193103 C1.96465116,9.60524138 1.96534884,9.58841379 1.96646512,9.57172414 C1.96744186,9.55503448 1.96897674,9.53834483 1.97023256,9.52165517 C1.97134884,9.50482759 1.97260465,9.48813793 1.974,9.47144828 C1.97525581,9.45475862 1.97637209,9.43793103 1.97790698,9.42137931 C1.9795814,9.40455172 1.98153488,9.38786207 1.9832093,9.37117241 C1.98488372,9.35448276 1.98669767,9.33765517 1.98851163,9.32110345 C1.99032558,9.30427586 1.992,9.28758621 1.99395349,9.27089655 C1.99604651,9.25406897 1.99855814,9.23737931 2.00065116,9.22068966 C2.00288372,9.204 2.00525581,9.18731034 2.00748837,9.17048276 C2.00986047,9.1537931 2.01195349,9.13710345 2.01446512,9.12041379 C2.01697674,9.10358621 2.02004651,9.08703448 2.02269767,9.0702069 C2.02548837,9.05351724 2.02813953,9.03682759 2.03106977,9.02013793 C2.034,9.00344828 2.03651163,8.98662069 2.03944186,8.96993103 C2.04251163,8.95324138 2.04613953,8.93655172 2.04934884,8.91986207 C2.05255814,8.90303448 2.05576744,8.88634483 2.05925581,8.86965517 C2.06260465,8.85296552 2.06567442,8.83613793 2.06916279,8.81958621 C2.0727907,8.80275862 2.07683721,8.78606897 2.08060465,8.76937931 C2.08437209,8.75268966 2.08813953,8.73586207 2.09204651,8.71917241 C2.09595349,8.70248276 2.0995814,8.68565517 2.10362791,8.66910345 C2.10767442,8.65227586 2.11227907,8.63558621 2.11660465,8.61889655 C2.1207907,8.6022069 2.12511628,8.58537931 2.12944186,8.56868966 C2.13390698,8.552 2.13823256,8.53531034 2.14283721,8.51862069 C2.14744186,8.5017931 2.15260465,8.48524138 2.15734884,8.46841379 C2.16223256,8.45172414 2.16697674,8.43503448 2.17186047,8.41834483 C2.17688372,8.40165517 2.18176744,8.38482759 2.18693023,8.36813793 C2.19209302,8.35144828 2.19767442,8.33475862 2.20297674,8.31806897 C2.2084186,8.30124138 2.2135814,8.28455172 2.21916279,8.26786207 C2.22474419,8.25103448 2.23032558,8.23434483 2.23604651,8.21765517 C2.24176744,8.20096552 2.24776744,8.18427586 2.25376744,8.16758621 C2.25962791,8.15089655 2.26534884,8.13406897 2.27148837,8.11737931 C2.27762791,8.10068966 2.28390698,8.084 2.29018605,8.06731034 C2.29646512,8.05048276 2.30302326,8.0337931 2.3095814,8.01710345 C2.316,8.00041379 2.32227907,7.98358621 2.32883721,7.96689655 C2.33567442,7.9502069 2.34265116,7.93351724 2.34962791,7.91682759 C2.35646512,7.9 2.36344186,7.88331034 2.37055814,7.86662069 C2.37767442,7.84993103 2.38437209,7.83310345 2.39162791,7.81655172 C2.39902326,7.79972414 2.40683721,7.78303448 2.41437209,7.76634483 C2.42190698,7.74965517 2.42930233,7.73282759 2.43697674,7.71613793 C2.4447907,7.69944828 2.45232558,7.68275862 2.46013953,7.66606897 C2.46809302,7.64924138 2.47646512,7.63268966 2.48455814,7.61586207 C2.4927907,7.59917241 2.50074419,7.58234483 2.50897674,7.5657931 C2.51734884,7.54896552 2.52586047,7.53227586 2.53437209,7.51558621 C2.54302326,7.49889655 2.55181395,7.4822069 2.56060465,7.46551724 C2.56925581,7.44882759 2.57776744,7.43186207 2.58669767,7.41531034 C2.59576744,7.39848276 2.60525581,7.38193103 2.61446512,7.36510345 C2.62367442,7.34841379 2.63288372,7.33172414 2.64237209,7.31503448 C2.65172093,7.2982069 2.66106977,7.28151724 2.67069767,7.26482759 C2.68046512,7.248 2.69051163,7.23144828 2.7004186,7.21475862 C2.71032558,7.19793103 2.72009302,7.18110345 2.73013953,7.16455172 C2.74032558,7.14772414 2.7507907,7.13103448 2.76111628,7.11434483 C2.77144186,7.09765517 2.78204651,7.08096552 2.79265116,7.06427586 C2.80325581,7.04758621 2.8135814,7.03075862 2.82446512,7.01406897 C2.83534884,6.99724138 2.84665116,6.98068966 2.85781395,6.964 C2.86897674,6.94717241 2.88,6.93048276 2.89130233,6.9137931 C2.90274419,6.89710345 2.91432558,6.88027586 2.92590698,6.86358621 C2.93762791,6.84689655 2.94934884,6.8302069 2.9612093,6.81351724 C2.9732093,6.79682759 2.9847907,6.78 2.99693023,6.76331034 C3.00906977,6.74648276 3.02176744,6.72993103 3.03418605,6.71324138 C3.04660465,6.69641379 3.05902326,6.67958621 3.0715814,6.66303448 C3.0844186,6.6462069 3.09739535,6.62951724 3.11037209,6.61296552 C3.12334884,6.59613793 3.13646512,6.57944828 3.14972093,6.56275862 C3.16297674,6.54606897 3.17623256,6.52924138 3.18976744,6.51255172 C3.20344186,6.49572414 3.21739535,6.47917241 3.23134884,6.46248276 C3.24516279,6.4457931 3.25869767,6.42882759 3.2727907,6.41227586 C3.28702326,6.39544828 3.30181395,6.37889655 3.31632558,6.36206897 C3.33083721,6.34537931 3.34534884,6.32868966 3.36,6.312 C3.37493023,6.29517241 3.38986047,6.27848276 3.40506977,6.2617931 C3.42013953,6.24496552 3.43562791,6.22827586 3.45097674,6.21172414 C3.46646512,6.19489655 3.48195349,6.1782069 3.4975814,6.16151724 C3.51362791,6.14468966 3.52981395,6.12813793 3.546,6.11144828 C3.56218605,6.09475862 3.57795349,6.0777931 3.5944186,6.06124138 C3.61102326,6.04441379 3.62818605,6.02786207 3.6452093,6.01117241 C3.66209302,5.99434483 3.67869767,5.97751724 3.69586047,5.96096552 C3.71330233,5.944 3.73116279,5.92744828 3.74888372,5.91075862 C3.76660465,5.89406897 3.78418605,5.87724138 3.80204651,5.86068966 C3.82032558,5.84372414 3.83888372,5.82717241 3.85730233,5.81048276 C3.87586047,5.79365517 3.8944186,5.77696552 3.91325581,5.76041379 C3.93223256,5.74344828 3.95162791,5.72689655 3.97088372,5.7102069 C3.9904186,5.69337931 4.00981395,5.67655172 4.02948837,5.66 C4.0495814,5.64317241 4.06967442,5.62648276 4.08990698,5.60993103 C4.11027907,5.59310345 4.1307907,5.57627586 4.15144186,5.55972414 C4.17237209,5.54289655 4.1935814,5.5262069 4.2147907,5.50965517 C4.23627907,5.49282759 4.25776744,5.476 4.27939535,5.45944828 C4.30144186,5.44262069 4.32376744,5.42593103 4.34609302,5.40924138 C4.36855814,5.39255172 4.39102326,5.37572414 4.41376744,5.35917241 C4.43706977,5.3422069 4.46065116,5.32565517 4.48409302,5.30896552 C4.50781395,5.29227586 4.53139535,5.27531034 4.55525581,5.25889655 C4.57981395,5.24193103 4.60493023,5.22537931 4.62976744,5.20868966 C4.65474419,5.19186207 4.6795814,5.17503448 4.70483721,5.15862069 C4.7307907,5.14165517 4.75716279,5.12496552 4.78339535,5.10841379 C4.80990698,5.09158621 4.83655814,5.07475862 4.86348837,5.0582069 C4.89083721,5.04137931 4.91832558,5.02455172 4.94595349,5.00813793 C4.97427907,4.99117241 5.00288372,4.97448276 5.03162791,4.95793103 C5.06065116,4.94110345 5.08953488,4.92427586 5.11883721,4.90772414 C5.14911628,4.89075862 5.17967442,4.8742069 5.21023256,4.85765517 C5.24148837,4.84068966 5.27288372,4.824 5.3044186,4.80744828 C5.33651163,4.79062069 5.36846512,4.7737931 5.40097674,4.75737931 C5.43474419,4.74027586 5.4687907,4.72372414 5.50283721,4.70717241 C5.53772093,4.6902069 5.57274419,4.67351724 5.60790698,4.65710345 C5.64404651,4.64013793 5.68018605,4.62331034 5.71674419,4.60689655 C5.75469767,4.58993103 5.7927907,4.57324138 5.83102326,4.55668966 C5.8707907,4.53972414 5.91083721,4.52303448 5.95102326,4.50662069 C5.99260465,4.48951724 6.03446512,4.47282759 6.07660465,4.45641379 C6.12027907,4.43944828 6.16437209,4.42262069 6.20860465,4.4062069 C6.25493023,4.38924138 6.30125581,4.37241379 6.34813953,4.35613793 C6.39739535,4.33903448 6.4467907,4.3222069 6.49674419,4.30593103 C6.54948837,4.28882759 6.60265116,4.272 6.65609302,4.25586207 C6.71330233,4.23848276 6.77093023,4.2217931 6.82883721,4.20565517 C6.89162791,4.18827586 6.95469767,4.17158621 7.01818605,4.15558621 C7.08795349,4.13793103 7.15813953,4.12124138 7.22860465,4.10537931 C7.30744186,4.08758621 7.38683721,4.07075862 7.46665116,4.05531034 C7.56139535,4.03682759 7.65697674,4.02027586 7.75311628,4.00510345 C7.8752093,3.9857931 7.99855814,3.96896552 8.12274419,3.95489655 Z M14.0843721,12.0133793 C13.7292558,12.0133793 13.3707907,12.3670345 13.3707907,12.7187586 C13.3707907,13.0754483 13.7292558,13.424 14.0843721,13.424 C14.6239535,13.424 14.9772558,13.0754483 14.9772558,12.7187586 C14.9772558,12.3670345 14.6239535,12.0133793 14.0843721,12.0133793 Z M18.008093,12.0133793 C17.6553488,12.0133793 17.2995349,12.3670345 17.2995349,12.7187586 C17.2995349,13.0754483 17.6553488,13.424 18.008093,13.424 C18.5427907,13.424 18.9009767,13.0754483 18.9009767,12.7187586 C18.9009767,12.3670345 18.5427907,12.0133793 18.008093,12.0133793 Z M6.77218605,6.89875862 C6.23748837,6.89875862 5.69790698,7.248 5.69790698,7.77834483 C5.69790698,8.30744828 6.23748837,8.66096552 6.77218605,8.66096552 C7.30674419,8.66096552 7.66255814,8.30744828 7.66255814,7.77834483 C7.66255814,7.248 7.30674419,6.89875862 6.77218605,6.89875862 Z M11.7644651,8.66096552 C12.3016744,8.66096552 12.6574884,8.30744828 12.6574884,7.77834483 C12.6574884,7.248 12.3016744,6.89875862 11.7644651,6.89875862 C11.229907,6.89875862 10.6933953,7.248 10.6933953,7.77834483 C10.6933953,8.30744828 11.229907,8.66096552 11.7644651,8.66096552 Z M11.5607442,10.8546207 C11.576093,10.8404138 11.5917209,10.8262069 11.6073488,10.812 C11.6231163,10.7977931 11.6387442,10.7835862 11.6546512,10.7693793 C11.6708372,10.7551724 11.6873023,10.7409655 11.7036279,10.7268966 C11.720093,10.7126897 11.7364186,10.6983448 11.7530233,10.6842759 C11.7700465,10.669931 11.7873488,10.6558621 11.8045116,10.6416552 C11.8216744,10.6274483 11.8388372,10.6131034 11.8562791,10.5990345 C11.874,10.5846897 11.8922791,10.5706207 11.9102791,10.5564138 C11.9282791,10.5422069 11.9464186,10.528 11.9646977,10.5137931 C11.9833953,10.4994483 12.0023721,10.4853793 12.0213488,10.4711724 C12.0403256,10.4569655 12.0593023,10.4427586 12.0786977,10.4286897 C12.0983721,10.4143448 12.118186,10.4001379 12.1381395,10.386069 C12.1582326,10.3717241 12.1783256,10.3575172 12.1986977,10.3434483 C12.2194884,10.3291034 12.2402791,10.3148966 12.2612093,10.3008276 C12.2825581,10.2864828 12.303907,10.2724138 12.3255349,10.2582069 C12.3473023,10.244 12.3690698,10.2296552 12.3911163,10.2155862 C12.4137209,10.2012414 12.4366047,10.1871724 12.4594884,10.1731034 C12.4826512,10.1587586 12.5056744,10.1444138 12.5289767,10.1304828 C12.5529767,10.116 12.5772558,10.101931 12.6016744,10.0878621 C12.6263721,10.0735172 12.6510698,10.0593103 12.676186,10.0452414 C12.7015814,10.0308966 12.7269767,10.0166897 12.7526512,10.0026207 C12.7791628,9.98827586 12.8059535,9.97406897 12.8328837,9.96 C12.860093,9.94565517 12.8874419,9.93144828 12.9150698,9.91737931 C12.9433953,9.90317241 12.9717209,9.88882759 13.0003256,9.87489655 C13.029907,9.86041379 13.059907,9.84634483 13.089907,9.83227586 C13.1206047,9.81793103 13.1514419,9.80358621 13.1825581,9.78965517 C13.2143721,9.77531034 13.2463256,9.76096552 13.2785581,9.74703448 C13.3123256,9.73255172 13.346093,9.71848276 13.3802791,9.70441379 C13.4155814,9.68993103 13.4513023,9.67586207 13.4870233,9.6617931 C13.5241395,9.64731034 13.5615349,9.63310345 13.5992093,9.61931034 C13.6384186,9.60468966 13.677907,9.59048276 13.7176744,9.57668966 C13.7595349,9.56206897 13.8015349,9.54786207 13.843814,9.53406897 C13.8887442,9.51944828 13.933814,9.50524138 13.9793023,9.49144828 C14.0278605,9.47668966 14.0766977,9.46262069 14.125814,9.44882759 C14.1789767,9.43406897 14.2325581,9.41986207 14.2864186,9.4062069 C14.3454419,9.39131034 14.4050233,9.37710345 14.4648837,9.36372414 C14.5315814,9.34868966 14.5988372,9.3342069 14.6665116,9.32110345 C14.7473023,9.30537931 14.8287907,9.29144828 14.9108372,9.27848276 C15.0147907,9.26206897 15.1195814,9.24786207 15.2254884,9.23586207 C15.4889302,9.20606897 15.7579535,9.19034483 16.0318605,9.18965517 L16.0699535,9.18965517 C16.3287907,9.19034483 16.5851163,9.20606897 16.8379535,9.23586207 C16.9395349,9.24786207 17.0405581,9.26206897 17.1408837,9.27848276 C17.22,9.29144828 17.2988372,9.30537931 17.3772558,9.32110345 C17.4428372,9.3342069 17.5081395,9.34868966 17.5731628,9.36372414 C17.6314884,9.37710345 17.6893953,9.39131034 17.7471628,9.4062069 C17.7996279,9.41986207 17.852093,9.43406897 17.9041395,9.44882759 C17.9522791,9.46262069 18.0001395,9.47668966 18.0478605,9.49144828 C18.0923721,9.50524138 18.1367442,9.51944828 18.1808372,9.53406897 C18.2224186,9.54786207 18.2638605,9.56206897 18.3051628,9.57668966 C18.3443721,9.59048276 18.3833023,9.60468966 18.4222326,9.61931034 C18.4593488,9.63310345 18.4963256,9.64731034 18.5330233,9.6617931 C18.5684651,9.67586207 18.6037674,9.68993103 18.6387907,9.70441379 C18.6725581,9.71848276 18.706186,9.73255172 18.7396744,9.74703448 C18.7717674,9.76096552 18.8034419,9.77531034 18.8352558,9.78965517 C18.866093,9.80358621 18.8969302,9.81793103 18.9274884,9.83227586 C18.9573488,9.84634483 18.9872093,9.86041379 19.0167907,9.87489655 C19.0453953,9.88882759 19.0737209,9.90317241 19.1020465,9.91737931 C19.1295349,9.93144828 19.1570233,9.94565517 19.1842326,9.96 C19.2111628,9.97406897 19.2379535,9.98827586 19.2646047,10.0026207 C19.2902791,10.0166897 19.315814,10.0308966 19.3413488,10.0452414 C19.3664651,10.0593103 19.3913023,10.0735172 19.4161395,10.0878621 C19.4405581,10.101931 19.4649767,10.116 19.4891163,10.1304828 C19.5126977,10.1444138 19.5358605,10.1587586 19.5591628,10.1731034 C19.582186,10.1871724 19.6052093,10.2012414 19.628093,10.2155862 C19.6502791,10.2296552 19.672186,10.244 19.6942326,10.2582069 C19.716,10.2722759 19.7376279,10.2864828 19.7592558,10.3008276 C19.7803256,10.3148966 19.8013953,10.3291034 19.8223256,10.3434483 C19.8429767,10.3575172 19.8633488,10.3717241 19.8837209,10.386069 C19.903814,10.4001379 19.9240465,10.4143448 19.944,10.4286897 C19.9635349,10.4427586 19.9827907,10.4569655 20.002186,10.4711724 C20.0213023,10.4853793 20.0406977,10.4994483 20.0596744,10.5137931 C20.0782326,10.528 20.0965116,10.5422069 20.1150698,10.5564138 C20.1333488,10.5706207 20.1517674,10.5846897 20.169907,10.5990345 C20.1876279,10.6131034 20.2050698,10.6274483 20.2226512,10.6416552 C20.240093,10.6558621 20.2576744,10.669931 20.2749767,10.6842759 C20.292,10.6983448 20.3086047,10.7126897 20.3254884,10.7268966 C20.342093,10.7409655 20.3589767,10.7551724 20.3754419,10.7693793 C20.3916279,10.7835862 20.4076744,10.7977931 20.4237209,10.812 C20.4397674,10.8262069 20.4556744,10.8404138 20.4714419,10.8546207 C20.4870698,10.8688276 20.5024186,10.8830345 20.5177674,10.8972414 C20.5331163,10.9114483 20.5483256,10.9256552 20.5633953,10.9398621 C20.5783256,10.953931 20.5931163,10.9681379 20.607907,10.9824828 C20.6225581,10.9965517 20.6369302,11.0107586 20.6514419,11.0251034 C20.665814,11.0393103 20.680186,11.0533793 20.6942791,11.0675862 C20.7082326,11.0817931 20.7220465,11.096 20.7358605,11.1102069 C20.7495349,11.1245517 20.7636279,11.1384828 20.7771628,11.1528276 C20.7905581,11.1668966 20.8035349,11.1812414 20.8167907,11.1954483 C20.8300465,11.2096552 20.8433023,11.2237241 20.8562791,11.238069 C20.8691163,11.2521379 20.881814,11.2664828 20.8945116,11.2806897 C20.9070698,11.2948966 20.9196279,11.3089655 20.9320465,11.3233103 C20.9444651,11.3373793 20.9567442,11.3515862 20.9690233,11.3657931 C20.9810233,11.38 20.9930233,11.3942069 21.0048837,11.4084138 C21.0167442,11.4226207 21.0288837,11.4366897 21.0406047,11.4510345 C21.052186,11.4651034 21.0633488,11.4794483 21.0747907,11.4936552 C21.086093,11.5078621 21.0975349,11.521931 21.1088372,11.5362759 C21.12,11.5504828 21.1308837,11.5646897 21.1417674,11.5788966 C21.1527907,11.5929655 21.1635349,11.6073103 21.1742791,11.6215172 C21.1848837,11.6357241 21.1957674,11.6497931 21.2062326,11.6641379 C21.2166977,11.6782069 21.2267442,11.6924138 21.2369302,11.7066207 C21.2472558,11.7208276 21.2575814,11.7350345 21.2676279,11.7492414 C21.2776744,11.7634483 21.2874419,11.7776552 21.2972093,11.7918621 C21.3069767,11.806069 21.3167442,11.8202759 21.3262326,11.8344828 C21.3358605,11.8486897 21.3456279,11.8627586 21.3551163,11.8771034 C21.3644651,11.8911724 21.3733953,11.9055172 21.3826047,11.9197241 C21.391814,11.933931 21.4010233,11.948 21.410093,11.9623448 C21.4190233,11.9764138 21.427814,11.9906207 21.4366047,12.0048276 C21.4453953,12.0190345 21.453907,12.0332414 21.4625581,12.0474483 C21.4710698,12.0616552 21.48,12.0758621 21.4885116,12.090069 C21.4967442,12.1041379 21.5046977,12.1184828 21.5129302,12.1326897 C21.5210233,12.1468966 21.5292558,12.1611034 21.5372093,12.1753103 C21.5451628,12.1895172 21.5532558,12.2035862 21.5610698,12.217931 C21.5688837,12.232 21.5762791,12.2462069 21.5839535,12.2605517 C21.5916279,12.2747586 21.5993023,12.2888276 21.6068372,12.3030345 C21.6142326,12.3172414 21.6214884,12.3314483 21.6287442,12.3456552 C21.636,12.3598621 21.6429767,12.374069 21.650093,12.3882759 C21.6572093,12.4024828 21.6644651,12.4165517 21.6714419,12.4308966 C21.6782791,12.4449655 21.6846977,12.4593103 21.6913953,12.4735172 C21.698093,12.4875862 21.7047907,12.5017931 21.7113488,12.5161379 C21.717907,12.5302069 21.7246047,12.5444138 21.7310233,12.5586207 C21.7373023,12.5728276 21.7431628,12.5870345 21.7494419,12.6012414 C21.7555814,12.6154483 21.7618605,12.6296552 21.7678605,12.6438621 C21.7738605,12.658069 21.7798605,12.6722759 21.7857209,12.6864828 C21.7915814,12.7006897 21.7971628,12.7148966 21.8027442,12.7291034 C21.8084651,12.7433103 21.8143256,12.7573793 21.8197674,12.7717241 C21.8253488,12.7857931 21.8306512,12.8 21.8359535,12.8143448 C21.8412558,12.8284138 21.8464186,12.8426207 21.8515814,12.8568276 C21.8568837,12.8710345 21.862186,12.8852414 21.8672093,12.8994483 C21.8722326,12.9136552 21.8769767,12.9278621 21.8817209,12.942069 C21.8866047,12.9562759 21.8913488,12.9704828 21.8959535,12.9846897 C21.9006977,12.9988966 21.9057209,13.0131034 21.910186,13.0273103 C21.9147907,13.0415172 21.9188372,13.0557241 21.9231628,13.069931 C21.9274884,13.0841379 21.931814,13.0982069 21.936,13.1124138 C21.9403256,13.1267586 21.9447907,13.1408276 21.9488372,13.1550345 C21.9528837,13.1692414 21.9565116,13.1834483 21.9602791,13.1976552 C21.964186,13.2118621 21.968093,13.226069 21.9718605,13.2402759 C21.9754884,13.2544828 21.9795349,13.2686897 21.9830233,13.2828966 C21.9866512,13.2969655 21.9898605,13.3113103 21.9932093,13.3255172 C21.9966977,13.3397241 22.0000465,13.3537931 22.0032558,13.3681379 C22.0066047,13.3823448 22.010093,13.3964138 22.0131628,13.4106207 C22.0162326,13.4248276 22.0190233,13.4390345 22.0219535,13.4532414 C22.0248837,13.4674483 22.027814,13.4816552 22.0307442,13.4958621 C22.0335349,13.510069 22.0364651,13.5242759 22.0391163,13.5384828 C22.0417674,13.5526897 22.044,13.5668966 22.0465116,13.5811034 C22.0490233,13.5953103 22.0515349,13.6093793 22.053907,13.6237241 C22.0562791,13.637931 22.0587907,13.652 22.0610233,13.6663448 C22.0632558,13.6804138 22.0649302,13.6947586 22.0670233,13.7088276 C22.0691163,13.7230345 22.0712093,13.7372414 22.0731628,13.7514483 C22.0749767,13.7656552 22.0770698,13.7798621 22.0788837,13.794069 C22.0806977,13.8082759 22.0819535,13.8224828 22.0836279,13.8366897 C22.0851628,13.8508966 22.0868372,13.8651034 22.0882326,13.8793103 C22.0897674,13.8935172 22.0914419,13.9075862 22.0926977,13.921931 C22.094093,13.936 22.0949302,13.9503448 22.0960465,13.9645517 C22.0973023,13.9787586 22.0984186,13.9928276 22.0995349,14.0070345 C22.1005116,14.0212414 22.1017674,14.0354483 22.1027442,14.0496552 C22.1035814,14.0638621 22.104,14.078069 22.1046977,14.0922759 C22.1053953,14.1064828 22.106093,14.1206897 22.1066512,14.1348966 C22.1072093,14.1491034 22.108186,14.1633103 22.1086047,14.1775172 C22.1090233,14.1917241 22.1090233,14.205931 22.1093023,14.2201379 C22.1095814,14.2343448 22.1098605,14.2484138 22.11,14.2627586 L22.1101395,14.2750345 L22.1101395,14.3550345 C22.11,14.3667586 22.1098605,14.3786207 22.1095814,14.3904828 C22.1093023,14.4046897 22.1087442,14.4188966 22.108186,14.4331034 C22.1077674,14.4473103 22.1072093,14.4615172 22.1065116,14.4757241 C22.105814,14.489931 22.1051163,14.5041379 22.1042791,14.5183448 C22.1034419,14.5325517 22.1024651,14.5467586 22.1013488,14.5609655 C22.1003721,14.5750345 22.0995349,14.5893793 22.0982791,14.6034483 C22.0970233,14.6176552 22.0956279,14.6318621 22.0942326,14.646069 C22.0929767,14.6602759 22.0915814,14.6744828 22.0900465,14.6886897 C22.0885116,14.7028966 22.0868372,14.7171034 22.0851628,14.7313103 C22.0834884,14.7455172 22.0816744,14.7597241 22.0797209,14.773931 C22.077907,14.7881379 22.076093,14.8023448 22.074,14.8165517 C22.0720465,14.8307586 22.0696744,14.8448276 22.0675814,14.8591724 C22.0652093,14.8732414 22.0631163,14.8874483 22.0607442,14.9016552 C22.0583721,14.9158621 22.0557209,14.930069 22.0532093,14.9442759 C22.0506977,14.9584828 22.0480465,14.9726897 22.0453953,14.9868966 C22.0426047,15.0011034 22.039814,15.0153103 22.0368837,15.0295172 C22.0339535,15.0437241 22.0308837,15.057931 22.027814,15.0721379 C22.0247442,15.0863448 22.021814,15.1005517 22.0184651,15.1147586 C22.0152558,15.1289655 22.0117674,15.1431724 22.0084186,15.1573793 C22.0049302,15.1714483 22.0014419,15.1856552 21.9979535,15.1998621 C21.9943256,15.214069 21.9906977,15.2282759 21.9869302,15.2424828 C21.9831628,15.2566897 21.9792558,15.2708966 21.9752093,15.2851034 C21.9713023,15.2993103 21.9673953,15.3135172 21.9633488,15.3277241 C21.9591628,15.341931 21.9549767,15.3561379 21.9506512,15.3703448 C21.9463256,15.3845517 21.942,15.3987586 21.9375349,15.4129655 C21.9330698,15.4271724 21.9286047,15.4413793 21.924,15.4555862 C21.9192558,15.4696552 21.9145116,15.4838621 21.9096279,15.498069 C21.9048837,15.5122759 21.9,15.5264828 21.8949767,15.5406897 C21.8899535,15.5548966 21.8849302,15.5691034 21.8797674,15.5833103 C21.8746047,15.5975172 21.8693023,15.6117241 21.864,15.625931 C21.8585581,15.6401379 21.8532558,15.6543448 21.847814,15.6685517 C21.8422326,15.6827586 21.8365116,15.6969655 21.8307907,15.7111724 C21.8250698,15.7252414 21.8193488,15.7395862 21.8134884,15.7536552 C21.8076279,15.7678621 21.8016279,15.7822069 21.7956279,15.7962759 C21.7896279,15.8104828 21.7833488,15.8246897 21.7770698,15.8388966 C21.7709302,15.8531034 21.7646512,15.8673103 21.7582326,15.8815172 C21.751814,15.8957241 21.7452558,15.909931 21.7386977,15.9241379 C21.732,15.9383448 21.7253023,15.9525517 21.7186047,15.9667586 C21.7117674,15.9809655 21.7050698,15.9951724 21.698093,16.0093793 C21.6911163,16.0235862 21.684,16.0377931 21.6768837,16.0518621 C21.6696279,16.066069 21.6625116,16.0802759 21.6551163,16.0944828 C21.6478605,16.1086897 21.6404651,16.1228966 21.6329302,16.1371034 C21.6255349,16.1513103 21.6177209,16.1655172 21.6100465,16.1797241 C21.6023721,16.193931 21.5946977,16.2081379 21.5868837,16.2223448 C21.5789302,16.2365517 21.5709767,16.2507586 21.5628837,16.2649655 C21.5549302,16.2791724 21.5466977,16.2933793 21.5383256,16.3075862 C21.530093,16.3216552 21.5218605,16.336 21.5134884,16.350069 C21.5049767,16.3644138 21.4964651,16.3784828 21.487814,16.3926897 C21.4791628,16.4068966 21.4703721,16.4211034 21.4615814,16.4353103 C21.4527907,16.4495172 21.444,16.4637241 21.4350698,16.477931 C21.426,16.4921379 21.4167907,16.5063448 21.4077209,16.5205517 C21.3983721,16.5347586 21.3891628,16.5489655 21.379814,16.5631724 C21.3703256,16.5773793 21.3609767,16.5915862 21.3513488,16.6056552 C21.3418605,16.6198621 21.332093,16.634069 21.3223256,16.6482759 C21.3125581,16.6626207 21.3026512,16.6766897 21.2926047,16.6908966 C21.2826977,16.7051034 21.2726512,16.7193103 21.2626047,16.7335172 C21.2524186,16.7477241 21.242093,16.761931 21.2317674,16.7761379 C21.2214419,16.7903448 21.2108372,16.8045517 21.2003721,16.8187586 C21.1897674,16.8329655 21.1791628,16.8471724 21.1684186,16.8613793 C21.1576744,16.8755862 21.1467907,16.8897931 21.135907,16.9038621 C21.1248837,16.9182069 21.1137209,16.9322759 21.1025581,16.9464828 C21.0913953,16.9606897 21.0802326,16.9750345 21.0689302,16.9891034 C21.0574884,17.0033103 21.0460465,17.0175172 21.0346047,17.0317241 C21.0230233,17.045931 21.0111628,17.0601379 20.9994419,17.0743448 C20.9875814,17.0885517 20.9757209,17.1027586 20.9637209,17.1169655 C20.9517209,17.1311724 20.9397209,17.1453793 20.9275814,17.1595862 C20.9154419,17.1737931 20.9030233,17.188 20.8907442,17.202069 C20.878186,17.2164138 20.8656279,17.2306207 20.8530698,17.2446897 C20.8405116,17.2588966 20.827814,17.2732414 20.8149767,17.2873103 C20.8021395,17.3015172 20.7893023,17.3157241 20.776186,17.329931 C20.7630698,17.3441379 20.749814,17.3583448 20.7366977,17.3725517 C20.7233023,17.3867586 20.709907,17.4009655 20.6965116,17.4150345 C20.6829767,17.4293793 20.6694419,17.4435862 20.6557674,17.4576552 C20.6419535,17.472 20.6281395,17.4862069 20.6143256,17.5002759 C20.6002326,17.5146207 20.5862791,17.5288276 20.5720465,17.5428966 C20.5579535,17.5571034 20.5435814,17.5713103 20.5293488,17.5855172 C20.5148372,17.5997241 20.5004651,17.613931 20.485814,17.6281379 C20.4711628,17.6423448 20.4563721,17.6565517 20.4415814,17.6707586 C20.4267907,17.6849655 20.4117209,17.6991724 20.3966512,17.7132414 C20.3815814,17.7275862 20.3662326,17.7417931 20.3510233,17.7558621 C20.3356744,17.7702069 20.320186,17.7844138 20.3046977,17.7984828 C20.2890698,17.8126897 20.2734419,17.8270345 20.2576744,17.8411034 C20.2417674,17.8554483 20.2257209,17.8695172 20.2096744,17.8837241 C20.1936279,17.898069 20.1774419,17.9121379 20.1611163,17.9263448 C20.1447907,17.9405517 20.1283256,17.9547586 20.1118605,17.9689655 C20.0952558,17.9831724 20.0785116,17.9973793 20.0617674,18.0114483 C20.0448837,18.0257931 20.028,18.04 20.0109767,18.054069 C19.9936744,18.0684138 19.9765116,18.0826207 19.9592093,18.0966897 C19.9417674,18.1110345 19.924186,18.1251034 19.9066047,18.1393103 C19.8888837,18.1536552 19.8711628,18.1677241 19.8533023,18.181931 C19.8354419,18.1961379 19.8174419,18.2103448 19.7993023,18.2245517 C19.7810233,18.2387586 19.7627442,18.2529655 19.7444651,18.2671724 C19.725907,18.2813793 19.7072093,18.2955862 19.6885116,18.3096552 C19.6696744,18.324 19.6506977,18.3382069 19.6317209,18.3522759 L19.6120465,18.3670345 L19.7113953,18.6931034 L19.7242326,18.7357241 L19.8929302,19.2895172 L19.905907,19.3321379 L19.9188837,19.3747586 L19.9318605,19.4172414 L20.0095814,19.6729655 L20.0225581,19.7154483 L20.1393488,20.0988966 L20.1485581,20.1293793 L20.0924651,20.0988966 L19.6204186,19.8433103 L19.5417209,19.8006897 L19.4630233,19.758069 L19.2270698,19.6303448 L19.1483721,19.5877241 L19.0696744,19.5451034 L18.9909767,19.5024828 L18.9122791,19.4598621 L18.8335814,19.4172414 L18.7548837,19.3747586 L18.6763256,19.3321379 L18.5976279,19.2895172 L18.4402326,19.2042759 L18.3615349,19.1616552 L18.2828372,19.1191724 L18.2041395,19.0765517 L18.1918605,19.0697931 L18.1647907,19.0765517 C18.1073023,19.0907586 18.049814,19.1049655 17.9923256,19.1191724 C17.934,19.1335172 17.8755349,19.1477241 17.8172093,19.1616552 C17.7570698,19.1761379 17.6967907,19.1904828 17.6366512,19.2042759 C17.5734419,19.2188966 17.5102326,19.2331034 17.4471628,19.2468966 C17.3792093,19.2617931 17.3111163,19.276 17.2431628,19.2895172 C17.1671163,19.3046897 17.0910698,19.3190345 17.0151628,19.3321379 C16.9230698,19.348 16.8311163,19.3623448 16.7390233,19.3747586 C16.5904186,19.3947586 16.441814,19.4093793 16.2933488,19.4172414 C16.2126977,19.4216552 16.1320465,19.4238621 16.0515349,19.4238621 C15.9460465,19.4238621 15.8413953,19.4216552 15.7374419,19.4172414 C15.5563256,19.4096552 15.3777209,19.3951724 15.2014884,19.3747586 C15.0976744,19.3626207 14.9946977,19.3485517 14.8925581,19.3321379 C14.811907,19.3191724 14.7315349,19.3051034 14.652,19.2895172 C14.5846047,19.2764138 14.5177674,19.261931 14.4513488,19.2468966 C14.3917674,19.2335172 14.3326047,19.2193103 14.2738605,19.2042759 C14.2202791,19.1906207 14.1669767,19.1765517 14.114093,19.1616552 C14.0651163,19.148 14.0164186,19.1337931 13.9681395,19.1191724 C13.9229302,19.1053793 13.878,19.0911724 13.8333488,19.0765517 C13.7913488,19.0627586 13.7494884,19.0485517 13.7077674,19.033931 C13.6681395,19.0201379 13.6287907,19.0057931 13.5897209,18.9913103 C13.552186,18.9773793 13.5149302,18.9631724 13.4779535,18.9486897 C13.4423721,18.9347586 13.4067907,18.9206897 13.3716279,18.906069 C13.3375814,18.8921379 13.3035349,18.878069 13.269907,18.8634483 C13.2376744,18.8496552 13.206,18.8353103 13.174186,18.8209655 C13.1432093,18.8070345 13.1125116,18.7926897 13.0819535,18.7783448 C13.052093,18.7642759 13.0222326,18.7502069 12.9926512,18.7357241 C12.9640465,18.7217931 12.9355814,18.7074483 12.9072558,18.6931034 C12.8797674,18.6791724 12.8525581,18.6648276 12.8253488,18.6504828 C12.7986977,18.6364138 12.771907,18.6223448 12.7455349,18.6078621 C12.7197209,18.593931 12.6943256,18.5795862 12.6687907,18.5653793 C12.6439535,18.5513103 12.6192558,18.5371034 12.5946977,18.5227586 C12.5704186,18.5085517 12.546,18.4946207 12.522,18.4801379 C12.4986977,18.4662069 12.475814,18.4517241 12.4527907,18.4375172 C12.4300465,18.4234483 12.4071628,18.4092414 12.3846977,18.3948966 C12.3626512,18.3808276 12.3407442,18.3666207 12.3189767,18.3522759 C12.2974884,18.3382069 12.2761395,18.324 12.2549302,18.3096552 C12.234,18.2955862 12.2130698,18.2815172 12.1924186,18.2671724 C12.1720465,18.2531034 12.152093,18.2387586 12.132,18.2245517 C12.112186,18.2103448 12.0922326,18.1962759 12.0725581,18.181931 C12.0533023,18.1678621 12.0344651,18.1535172 12.0153488,18.1393103 C11.9965116,18.1251034 11.9773953,18.1110345 11.9586977,18.0966897 C11.9404186,18.0826207 11.9225581,18.0684138 11.9045581,18.054069 C11.8865581,18.0398621 11.8682791,18.0257931 11.8505581,18.0114483 C11.8331163,17.9975172 11.816093,17.9831724 11.7989302,17.9689655 C11.7817674,17.9547586 11.7644651,17.9406897 11.7474419,17.9263448 C11.7308372,17.9122759 11.7146512,17.897931 11.6983256,17.8837241 C11.682,17.8695172 11.6653953,17.8554483 11.6493488,17.8411034 C11.6334419,17.8270345 11.6179535,17.8126897 11.602186,17.7984828 C11.5866977,17.7844138 11.5709302,17.7702069 11.5555814,17.7558621 C11.5403721,17.7417931 11.5254419,17.7275862 11.5105116,17.7132414 C11.4955814,17.6991724 11.4806512,17.6849655 11.466,17.6707586 C11.4514884,17.6565517 11.4371163,17.6423448 11.4227442,17.6281379 C11.4085116,17.613931 11.3942791,17.5997241 11.3803256,17.5855172 C11.3663721,17.5713103 11.3525581,17.5572414 11.3387442,17.5428966 C11.3252093,17.5288276 11.3116744,17.5144828 11.2982791,17.5002759 C11.2850233,17.486069 11.2714884,17.472 11.2582326,17.4576552 C11.2452558,17.4435862 11.2326977,17.4292414 11.2198605,17.4150345 C11.2070233,17.4009655 11.1940465,17.3868966 11.1813488,17.3725517 C11.1689302,17.3583448 11.1569302,17.3441379 11.1446512,17.329931 C11.1323721,17.3157241 11.120093,17.3016552 11.108093,17.2873103 C11.096093,17.2732414 11.0842326,17.2588966 11.0725116,17.2446897 C11.0607907,17.2306207 11.0492093,17.2164138 11.0377674,17.202069 C11.0263256,17.188 11.0147442,17.1737931 11.0033023,17.1595862 C10.9921395,17.1453793 10.9813953,17.1310345 10.9703721,17.1169655 C10.9593488,17.1027586 10.948186,17.0886897 10.9374419,17.0743448 C10.9266977,17.0601379 10.9162326,17.045931 10.9057674,17.0317241 C10.8953023,17.0175172 10.8848372,17.0033103 10.8745116,16.9891034 C10.864186,16.9748966 10.8538605,16.9608276 10.843814,16.9464828 C10.8337674,16.9324138 10.824,16.918069 10.814093,16.9038621 C10.8043256,16.8896552 10.7942791,16.8755862 10.7845116,16.8613793 C10.7750233,16.8471724 10.7656744,16.8329655 10.756186,16.8187586 C10.7468372,16.8045517 10.7374884,16.7903448 10.7282791,16.7761379 C10.7190698,16.761931 10.7097209,16.7477241 10.7007907,16.7335172 C10.6917209,16.7194483 10.6832093,16.7051034 10.6742791,16.6908966 C10.6654884,16.6766897 10.6565581,16.6626207 10.647907,16.6482759 C10.6393953,16.6342069 10.6310233,16.6198621 10.6226512,16.6056552 C10.6142791,16.5915862 10.6060465,16.5773793 10.597814,16.5631724 C10.5895814,16.5488276 10.5812093,16.5347586 10.5731163,16.5205517 C10.5651628,16.5064828 10.5576279,16.492 10.549814,16.477931 C10.5418605,16.4637241 10.5340465,16.4495172 10.5263721,16.4353103 C10.5188372,16.4211034 10.5111628,16.4068966 10.5037674,16.3926897 C10.4963721,16.3786207 10.4891163,16.3642759 10.4818605,16.350069 C10.4746047,16.3358621 10.4672093,16.3217931 10.4599535,16.3075862 C10.4529767,16.2933793 10.4461395,16.2791724 10.4393023,16.2649655 C10.4323256,16.2507586 10.4256279,16.2365517 10.4189302,16.2223448 C10.412093,16.2081379 10.4051163,16.193931 10.3985581,16.1797241 C10.392,16.1656552 10.3858605,16.1513103 10.3795814,16.1371034 C10.3731628,16.1228966 10.3667442,16.1086897 10.3606047,16.0944828 C10.3543256,16.0802759 10.3480465,16.0662069 10.3420465,16.0518621 C10.3360465,16.0377931 10.3303256,16.0234483 10.3244651,16.0093793 C10.3186047,15.9950345 10.3126047,15.9809655 10.3068837,15.9667586 C10.3011628,15.9525517 10.2955814,15.9383448 10.29,15.9241379 C10.2844186,15.909931 10.2792558,15.8957241 10.273814,15.8815172 C10.2685116,15.8673103 10.2627907,15.8531034 10.2576279,15.8388966 C10.2524651,15.8246897 10.2474419,15.8104828 10.2424186,15.7962759 C10.2373953,15.7822069 10.2325116,15.7678621 10.2274884,15.7536552 C10.2226047,15.7394483 10.2174419,15.7253793 10.2126977,15.7111724 C10.2079535,15.6969655 10.2036279,15.6826207 10.1991628,15.6685517 C10.1945581,15.6543448 10.190093,15.6401379 10.1856279,15.625931 C10.1811628,15.6117241 10.1764186,15.5975172 10.172093,15.5833103 C10.167907,15.5692414 10.1641395,15.5548966 10.1599535,15.5406897 C10.155907,15.5264828 10.1518605,15.5122759 10.147814,15.498069 C10.143907,15.4838621 10.1397209,15.4697931 10.135814,15.4555862 C10.1320465,15.4413793 10.1286977,15.4270345 10.1249302,15.4129655 C10.1213023,15.3987586 10.1176744,15.3845517 10.114186,15.3703448 C10.1105581,15.3561379 10.1069302,15.341931 10.1035814,15.3277241 C10.1002326,15.3135172 10.0973023,15.2993103 10.0939535,15.2851034 C10.0907442,15.2708966 10.0875349,15.2566897 10.0844651,15.2424828 C10.0813953,15.2282759 10.078186,15.214069 10.0752558,15.1998621 C10.0723256,15.1857931 10.069814,15.1714483 10.0670233,15.1573793 C10.0642326,15.1430345 10.0614419,15.1289655 10.0587907,15.1147586 C10.0561395,15.1005517 10.0534884,15.0863448 10.0509767,15.0721379 C10.0484651,15.057931 10.0463721,15.0437241 10.044,15.0295172 C10.0416279,15.0153103 10.0392558,15.0011034 10.0370233,14.9868966 C10.0347907,14.9726897 10.0325581,14.9584828 10.0304651,14.9442759 C10.0283721,14.9302069 10.0266977,14.9158621 10.0247442,14.9016552 C10.0227907,14.8874483 10.0208372,14.8733793 10.0190233,14.8591724 C10.0172093,14.8448276 10.0153953,14.8307586 10.0137209,14.8165517 C10.0120465,14.8023448 10.0107907,14.7881379 10.0093953,14.773931 C10.0078605,14.7597241 10.0063256,14.7455172 10.0049302,14.7313103 C10.0035349,14.7171034 10.002,14.7028966 10.0008837,14.6886897 C9.99962791,14.6744828 9.9987907,14.6602759 9.99767442,14.646069 C9.99655814,14.6318621 9.99544186,14.6176552 9.99446512,14.6034483 C9.99348837,14.5892414 9.99251163,14.5751724 9.99167442,14.5609655 C9.99083721,14.5467586 9.9904186,14.5324138 9.98972093,14.5183448 L9.98790698,14.4757241 C9.98734884,14.4615172 9.98665116,14.4473103 9.98609302,14.4331034 C9.98567442,14.4188966 9.98581395,14.4046897 9.98553488,14.3904828 L9.98483721,14.3478621 C9.98469767,14.3342069 9.98427907,14.3205517 9.98427907,14.3067586 L9.98427907,14.3052414 C9.98427907,14.2910345 9.98483721,14.2768276 9.98483721,14.2627586 C9.98497674,14.2484138 9.98525581,14.2343448 9.98553488,14.2201379 C9.98581395,14.205931 9.98581395,14.1917241 9.98623256,14.1775172 C9.98665116,14.1633103 9.98748837,14.1491034 9.98790698,14.1348966 C9.98846512,14.1206897 9.98916279,14.1064828 9.98986047,14.0922759 C9.99055814,14.078069 9.99097674,14.0638621 9.99181395,14.0496552 C9.99265116,14.0354483 9.99376744,14.0212414 9.99474419,14.0070345 C9.99572093,13.9928276 9.99683721,13.9787586 9.99795349,13.9645517 C9.99906977,13.9503448 9.99990698,13.936 10.0011628,13.921931 C10.0022791,13.9075862 10.003814,13.8935172 10.0052093,13.8793103 C10.0066047,13.8651034 10.0081395,13.8508966 10.0096744,13.8366897 C10.0112093,13.8224828 10.0124651,13.8082759 10.0141395,13.794069 C10.015814,13.7798621 10.0177674,13.7656552 10.0195814,13.7514483 C10.0212558,13.7372414 10.0233488,13.7230345 10.0253023,13.7088276 C10.0272558,13.6947586 10.0289302,13.6804138 10.0310233,13.6663448 C10.0329767,13.652 10.0353488,13.637931 10.0375814,13.6237241 C10.039814,13.6093793 10.042186,13.5953103 10.0445581,13.5811034 C10.0469302,13.5668966 10.0490233,13.5526897 10.0515349,13.5384828 C10.0540465,13.5242759 10.0569767,13.510069 10.0596279,13.4958621 C10.0622791,13.4816552 10.0650698,13.4674483 10.0678605,13.4532414 C10.0706512,13.4390345 10.0731628,13.4248276 10.076093,13.4106207 C10.0790233,13.3964138 10.0823721,13.3823448 10.0854419,13.3681379 C10.0885116,13.3537931 10.0917209,13.3397241 10.0949302,13.3255172 C10.0981395,13.3113103 10.1012093,13.2969655 10.1045581,13.2828966 C10.107907,13.2686897 10.1116744,13.2544828 10.1151628,13.2402759 C10.1187907,13.226069 10.1224186,13.2118621 10.1260465,13.1976552 C10.129814,13.1834483 10.1331628,13.1692414 10.1369302,13.1550345 C10.1408372,13.1408276 10.1450233,13.1267586 10.1490698,13.1124138 C10.1529767,13.0982069 10.1571628,13.0841379 10.1612093,13.069931 C10.1653953,13.0557241 10.1693023,13.0415172 10.1734884,13.0273103 C10.177814,13.0131034 10.1825581,12.9988966 10.1870233,12.9846897 C10.1914884,12.9704828 10.1959535,12.9562759 10.2005581,12.942069 C10.2051628,12.9278621 10.2096279,12.9136552 10.2142326,12.8994483 C10.2191163,12.8852414 10.2242791,12.8710345 10.2291628,12.8568276 C10.2340465,12.8426207 10.2389302,12.8284138 10.244093,12.8143448 C10.2491163,12.8 10.2541395,12.7857931 10.2594419,12.7717241 C10.2646047,12.7573793 10.270186,12.7433103 10.2756279,12.7291034 C10.2809302,12.7148966 10.2862326,12.7006897 10.291814,12.6864828 C10.2973953,12.6722759 10.3031163,12.658069 10.3088372,12.6438621 C10.3145581,12.6296552 10.3205581,12.6154483 10.3264186,12.6012414 C10.3322791,12.5870345 10.338,12.5728276 10.344,12.5586207 C10.3501395,12.5444138 10.3565581,12.5303448 10.3626977,12.5161379 C10.3689767,12.5017931 10.3752558,12.4877241 10.3816744,12.4735172 C10.388093,12.4593103 10.3942326,12.4449655 10.4007907,12.4308966 C10.4073488,12.4165517 10.4144651,12.4024828 10.4211628,12.3882759 C10.428,12.374069 10.4346977,12.3598621 10.4416744,12.3456552 C10.4485116,12.3314483 10.4554884,12.3172414 10.4624651,12.3030345 C10.4695814,12.2888276 10.4771163,12.2747586 10.4843721,12.2605517 C10.4916279,12.2462069 10.4987442,12.232 10.5062791,12.217931 C10.513814,12.2035862 10.5214884,12.1895172 10.5291628,12.1753103 C10.5368372,12.1611034 10.5446512,12.1468966 10.5524651,12.1326897 C10.5602791,12.1184828 10.567814,12.1041379 10.575907,12.090069 C10.5838605,12.0758621 10.5925116,12.0616552 10.6007442,12.0474483 C10.6089767,12.0332414 10.6170698,12.0190345 10.6255814,12.0048276 C10.6339535,11.9906207 10.6424651,11.9764138 10.6509767,11.9623448 C10.6597674,11.948 10.6685581,11.933931 10.6774884,11.9197241 C10.6862791,11.9055172 10.6949302,11.8911724 10.7038605,11.8771034 C10.7129302,11.8627586 10.7222791,11.8486897 10.7314884,11.8344828 C10.7408372,11.8202759 10.750186,11.806069 10.7595349,11.7918621 C10.7690233,11.7776552 10.7783721,11.7634483 10.788,11.7492414 C10.7977674,11.7350345 10.8076744,11.7208276 10.8175814,11.7066207 C10.8274884,11.6924138 10.8371163,11.6782069 10.8471628,11.6641379 C10.8573488,11.6497931 10.867814,11.6357241 10.8781395,11.6215172 C10.8884651,11.6073103 10.8989302,11.5929655 10.9093953,11.5788966 C10.92,11.5646897 10.9304651,11.5504828 10.9412093,11.5362759 C10.952093,11.521931 10.9632558,11.5078621 10.9742791,11.4936552 C10.9851628,11.4794483 10.9960465,11.4651034 11.0072093,11.4510345 C11.0185116,11.4366897 11.0302326,11.4226207 11.041814,11.4084138 C11.0533953,11.3942069 11.0648372,11.38 11.0765581,11.3657931 C11.0882791,11.3515862 11.1002791,11.3373793 11.1122791,11.3233103 C11.1242791,11.3089655 11.1365581,11.2948966 11.1488372,11.2806897 C11.1611163,11.2664828 11.1732558,11.2521379 11.185814,11.238069 C11.1985116,11.2237241 11.2113488,11.2096552 11.224186,11.1954483 C11.2370233,11.1812414 11.2497209,11.1668966 11.2626977,11.1528276 C11.2759535,11.1384828 11.2894884,11.1244138 11.3028837,11.1102069 C11.3164186,11.096 11.3296744,11.0817931 11.3433488,11.0675862 C11.3571628,11.0533793 11.3711163,11.0391724 11.3850698,11.0251034 C11.3991628,11.0107586 11.4132558,10.9965517 11.4274884,10.9824828 C11.4418605,10.9681379 11.4563721,10.953931 11.4708837,10.9398621 C11.4856744,10.9256552 11.5004651,10.9114483 11.5153953,10.8972414 C11.5304651,10.8830345 11.5455349,10.8688276 11.5607442,10.8546207 L11.5607442,10.8546207 Z" id="Fill-2" fill="#1AAE18"></path>
                </g>
            </g>
        </g>
    </g>
</svg>