<svg xmlns="http://www.w3.org/2000/svg" xmlns:xlink="http://www.w3.org/1999/xlink" width="311" height="159" viewBox="0 0 311 159">
    <defs>
        <path id="a" d="M0 0h235v160H0z"/>
    </defs>
    <g fill="none" fill-rule="evenodd">
        <g fill-rule="nonzero" transform="translate(0 79)">
            <path fill="#40596B" d="M76.598 12.489H3.33A3.34 3.34 0 0 0 0 15.819v49.622a3.34 3.34 0 0 0 3.33 3.33h73.268a3.34 3.34 0 0 0 3.33-3.33V15.82a3.34 3.34 0 0 0-3.33-3.33z"/>
            <path fill="#FFF" d="M4.996 17.484h69.937v46.125H4.996z"/>
            <path fill="#CDD6E0" d="M24.645 68.772h30.473v8.992H24.645z"/>
            <path fill="#F2F2F2" d="M15.486 77.764h48.956v2.165H15.486z"/>
            <path fill="#ACB3BA" d="M24.645 68.772h30.473v2.498H24.645z"/>
            <path fill="#F2F2F2" d="M68.938 18.65v42.295a2.63 2.63 0 0 1-2.664 2.665H13.488a2.63 2.63 0 0 1-2.664-2.665V18.65h58.114z"/>
            <g fill="#FFF">
                <path d="M40.297 30.473V36.8h-.666v-6.327h.666zM40.297 54.784v6.328h-.666v-6.328h.666zM50.954 35.135l-4.496 4.496-.5-.5 4.497-4.495.5.5zM33.803 52.453l-4.496 4.496-.5-.5 4.496-4.496.5.5zM55.284 45.46v.665h-6.161v-.666h6.16zM30.972 45.792v.333h-6.16v-.666h6.16v.333zM50.954 56.283l-.5.5-4.329-4.33.5-.5 4.33 4.33zM33.803 39.132l-.5.5-4.496-4.497.5-.5 4.496 4.497zM36.8 37.3c-.166 0-.333.166-.666.333l-1.498-3.497.666-.333L36.8 37.3zM45.126 57.615l-.666.333-1.499-3.497c.167 0 .334-.166.667-.333l1.498 3.497zM31.805 41.962c-.167.167-.167.333-.333.667l-3.497-1.5.333-.665 3.497 1.498zM51.953 50.455l-.333.666-3.496-1.499c.166-.166.166-.333.333-.666l3.496 1.499zM31.805 49.456l-3.497 1.498-.333-.666 3.497-1.498c.166.333.166.5.333.666zM51.953 41.13l-3.496 1.499c0-.167-.167-.334-.333-.667l3.496-1.498.333.666zM36.8 54.285l-1.498 3.497-.666-.333 1.498-3.497c.333.166.5.166.666.333zM45.126 33.97l-1.332 3.496c-.166-.166-.333-.166-.666-.333l1.499-3.497.5.334z"/>
            </g>
            <path fill="#FFC874" d="M65.608 0H14.32a3.34 3.34 0 0 0-3.33 3.33v8.66h58.115V3.33C68.938 1.5 67.44 0 65.608 0z"/>
            <ellipse cx="32.804" cy="5.995" fill="#F8B64C" rx="1.998" ry="1.998"/>
            <ellipse cx="25.144" cy="5.995" fill="#FF7058" rx="1.998" ry="1.998"/>
            <ellipse cx="17.484" cy="5.995" fill="#F8B64C" rx="1.998" ry="1.998"/>
            <path fill="#E4EAEF" d="M68.938 19.982v7.826c-.999.833-2.331 1.166-3.663 1.166a6.325 6.325 0 0 1-6.328-6.328 6.325 6.325 0 0 1-6.327 6.328 6.325 6.325 0 0 1-6.328-6.328 6.325 6.325 0 0 1-6.328 6.328 6.325 6.325 0 0 1-6.327-6.328 6.325 6.325 0 0 1-6.328 6.328 6.325 6.325 0 0 1-6.328-6.328 6.325 6.325 0 0 1-6.327 6.328c-1.332 0-2.665-.5-3.664-1.166v-7.826h57.948z"/>
            <path fill="#FF7058" d="M20.981 18.65H8.326l2.664-6.66h11.49z"/>
            <path fill="#CDD6E0" d="M33.636 18.65H20.981l1.499-6.66h11.656z"/>
            <path fill="#FF7058" d="M46.292 18.65H33.636l.5-6.66h11.656z"/>
            <path fill="#CDD6E0" d="M58.947 18.65H46.292l-.5-6.66H57.45z"/>
            <path fill="#FF7058" d="M71.603 18.65H58.947l-1.498-6.66h11.49z"/>
            <g fill="#ACB3BA">
                <path d="M20.981 21.48a6.325 6.325 0 0 0 6.328 6.328 6.325 6.325 0 0 0 6.327-6.327V18.65H20.981v2.83zM46.292 18.65v2.83a6.325 6.325 0 0 0 6.328 6.328 6.325 6.325 0 0 0 6.327-6.327V18.65H46.292z"/>
            </g>
            <g fill="#F1543F">
                <path d="M8.326 21.48a6.325 6.325 0 0 0 6.328 6.328 6.325 6.325 0 0 0 6.327-6.327V18.65H8.326v2.83zM33.636 21.48a6.325 6.325 0 0 0 6.328 6.328 6.325 6.325 0 0 0 6.328-6.327V18.65H33.636v2.83zM58.947 18.65v2.83a6.325 6.325 0 0 0 6.328 6.328 6.325 6.325 0 0 0 6.328-6.327V18.65H58.947z"/>
            </g>
            <ellipse cx="39.964" cy="45.792" fill="#FF7058" rx="9.825" ry="9.991"/>
            <g fill="#FFF" transform="translate(33.147 39.522)">
                <path d="M5.152 9.268l-.333-1.166h7.66V2.274H3.32L2.82.11H.156v1h1.998l2.332 9.158h8.326v-1h-7.66zm6.327-6.161v3.83H4.652l-.999-3.83h7.826z"/>
                <circle cx="6.65" cy="12.098" r="1.166"/>
                <ellipse cx="10.98" cy="12.098" rx="1.166" ry="1.166"/>
            </g>
        </g>
        <g transform="translate(82 -1)">
            <mask id="b" fill="#fff">
                <use xlink:href="#a"/>
            </mask>
            <g mask="url(#b)">
                <g transform="rotate(14 -221.78 704.517)">
                    <ellipse cx="36.697" cy="25.758" fill="#FFF6E4" rx="24.714" ry="25.758"/>
                    <path fill="#FFF" d="M25.135 34.98s11.855 6.111 21.242 0c-10.621 18.194-21.242 0-21.242 0z"/>
                    <path fill="#FFF6E4" d="M24.937 45.974h22.191l6.794 66.663S41.506 81.208 35.948 81.208c-5.559 0-17.974 31.43-17.974 31.43l6.963-66.664z"/>
                    <path fill="#FFF6E4" d="M.134 46.115s47.818 27.946 73.538-5.17C38.52 97.307.134 46.115.134 46.115z"/>
                </g>
            </g>
            <g mask="url(#b)">
                <g transform="rotate(3 -361.426 2153.88)">
                    <ellipse cx="36.697" cy="25.758" fill="#FFF6E4" rx="24.714" ry="25.758"/>
                    <path fill="#FFF" d="M25.135 34.98s11.855 6.111 21.242 0c-10.621 18.194-21.242 0-21.242 0z"/>
                    <path fill="#FFF6E4" d="M24.937 45.974h22.191l6.794 66.663S41.506 81.208 35.948 81.208c-5.559 0-17.974 31.43-17.974 31.43l6.963-66.664z"/>
                    <path fill="#FFF6E4" d="M.134 46.115s47.818 27.946 73.538-5.17C38.52 97.307.134 46.115.134 46.115z"/>
                </g>
            </g>
            <g mask="url(#b)">
                <g transform="rotate(-10 439.831 80.38)">
                    <ellipse cx="36.697" cy="25.758" fill="#FFF6E4" rx="24.714" ry="25.758"/>
                    <path fill="#FFF" d="M25.135 34.98s11.855 6.111 21.242 0c-10.621 18.194-21.242 0-21.242 0z"/>
                    <path fill="#FFF6E4" d="M24.937 45.974h22.191l6.794 66.663S41.506 81.208 35.948 81.208c-5.559 0-17.974 31.43-17.974 31.43l6.963-66.664z"/>
                    <path fill="#FFF6E4" d="M.134 46.115s47.818 27.946 73.538-5.17C38.52 97.307.134 46.115.134 46.115z"/>
                </g>
            </g>
            <g mask="url(#b)">
                <rect width="6.07" height="25.583" x="136.144" y="69.81" fill="#FFD35A" rx="2"/>
                <path fill="#FFDC70" d="M135.204 55.694s-9.343 1.217-6.229 10.512c3.115 9.295 11.63 6.387 11.63 6.387l58.81 6.58-24.728-67.194-39.483 43.715z"/>
                <ellipse cx="186.659" cy="45.666" fill="#FFC700" rx="7.656" ry="35.953" transform="rotate(-20 186.66 45.666)"/>
                <path fill="#FFE0CD" d="M41.097 109.119s-12.43 1.231-21.174 8.346c-8.743 7.114-9.422 3.454-10.352 1.776-.93-1.677.94-16.039 1.137-18.56.198-2.522 4.545-6.181 2.145-8.633-2.4-2.453 1.912-10.99-.65-11.97-2.561-.979-2.632 9.904-4.04 9.16-1.407-.745-1.835-9.99-2.767-9.888-.932.102-.695 3.035-1.58 10.2-5.128 1.914-4.753 9.62-.867 11.13 3.887 1.512 1.198 6.352 0 15.84-1.197 9.486 5.153 13.322 17.692 9.577 12.54-3.746 23.985-4.133 25.885-6.856 1.9-2.722-5.429-10.122-5.429-10.122zM113.598 116.776s17.377 8.366 23.12 8.297c5.745-.07 14.123-.361 14.101-5.044-.022-4.683-.502-22.267-3.677-31.646-3.176-9.38-8.276-8.785-8.276-8.785s-7.183-.674-6.932 1.646c.14 1.298-.52 6.774 1.737 8.906 1.774 1.676 8.552.647 8.788 1.52.912 3.383 3.592 23.621-1.074 23.372-4.666-.25-14.377-8.112-23.841-7.795-9.464.318-3.946 9.53-3.946 9.53z"/>
                <path fill="#FA6063" d="M59.635 94.806l-24.949 14.025 7.84 15.177 14.507-7.715.562 43.21 45.774.23s1.62-41.455-.09-43.635c-1.71-2.18 12.412 4.55 12.412 4.55l7.446-14.957-24.525-10.78-1.257-5.589-6.144 2.65-11.063-.336-18.715-1.117-1.798 4.287z"/>
                <path fill="#FFABAC" d="M61.009 91.275l-1.456 3.697 14.683 12.62 5.519-5.616 5.753 4.78 13.228-11.784-.639-4.03z"/>
                <g transform="translate(39.022 1.3)">
                    <path fill="#FFE0CD" d="M40.756 97.561c9.81 0 20.1-6.342 26.208-15.197 6.119-8.871 8.045-19.831 8.045-29.898 0-20.116-14.617-32.52-34.253-32.52-19.635 0-34.252 12.404-34.252 32.52 0 10.253 2.063 21.45 8.387 30.388C20.974 91.452 31.13 97.56 40.756 97.56z"/>
                    <g transform="translate(51.162 44.661)">
                        <ellipse cx="4.336" cy="5.637" fill="#FFF" rx="4.336" ry="5.637"/>
                        <ellipse cx="4.336" cy="5.637" fill="#64372B" rx="3.469" ry="4.77"/>
                        <ellipse cx="3.035" cy="3.469" fill="#FFF" rx="1.734" ry="1"/>
                    </g>
                    <g transform="translate(22.546 44.661)">
                        <ellipse cx="4.336" cy="5.637" fill="#FFF" rx="4.336" ry="5.637"/>
                        <ellipse cx="4.336" cy="5.637" fill="#64372B" rx="3.469" ry="4.77"/>
                        <ellipse cx="3.035" cy="3.469" fill="#FFF" rx="1.734" ry="1"/>
                    </g>
                    <path fill="#7A321A" d="M40.756 86.72c7.663 0 13.875-6.211 13.875-13.874h-27.75c0 7.663 6.213 13.875 13.875 13.875z"/>
                    <path fill="#D0603E" d="M30.35 81.922a13.842 13.842 0 0 0 10.495 4.799c4.295 0 8.134-1.952 10.68-5.017-2.316-1.949-6.139-3.222-10.463-3.222-4.483 0-8.428 1.369-10.711 3.44z"/>
                    <path fill="#FFF" d="M32.085 72.846h17.343v.867a.87.87 0 0 1-.86.867H32.945a.862.862 0 0 1-.86-.867v-.867z"/>
                    <ellipse cx="8.672" cy="55.068" fill="#FFE0CD" rx="8.672" ry="8.672"/>
                    <ellipse cx="72.408" cy="55.068" fill="#FFE0CD" rx="8.672" ry="8.672"/>
                    <path fill="#EBC8B2" d="M28.227 33.29s13.325 6.455 22.529 2.334c9.203-4.12 12.994-3.599 14.736-1.8 1.743 1.8 6.515 12.387 7.06 15.02.546 2.632 1.2-6.084 1.2-6.084s.445-16.682-16.505-16.9c-16.95-.217-29.887 1.384-29.82 3.246.069 1.862.8 4.183.8 4.183z"/>
                    <path fill="#5B3C3B" d="M5.981 58.024c2.822 10.699 5.182-28.462 13.274-27.669 8.093.793 21.55 5.905 27.863 5.112 6.313-.794 10.341-5.112 16.458-4.319 6.116.794 12.833 16.554 10.734 32.109 4.837-12.61 4.003-34.023-5.706-42.932-3.472-16.667-28.45-10.247-36.717-6.883s-19.565-5.56-18.222-11.63C15.008-4.26.983 10.278 5.981 23.831c-2.02-3.309-2.82 23.494 0 34.192z"/>
                </g>
                <path fill="#FBFBFB" d="M78.478 108.835h3.468l1.735 29.051-3.469 2.872-3.468-2.872z"/>
                <ellipse cx="80.212" cy="107.534" fill="#FFF" rx="3.902" ry="3.902"/>
                <g transform="rotate(-17 122.605 -625.826)">
                    <rect width="28.183" height="6.07" x="-1.734" y="50.732" fill="#FEC372" rx="3.035" transform="rotate(45 12.357 53.767)"/>
                    <rect width="28.183" height="6.07" x=".434" y="29.919" fill="#FEA472" rx="3.035"/>
                    <rect width="28.183" height="6.07" x="-1.734" y="9.106" fill="#FE7288" rx="3.035" transform="rotate(-45 12.357 12.14)"/>
                </g>
            </g>
        </g>
    </g>
</svg>
