<svg xmlns="http://www.w3.org/2000/svg" width="34" height="34" viewBox="0 0 34 34">
    <g fill="none" fill-rule="evenodd">
        <circle cx="17" cy="17" r="16.5" stroke="#FFF"/>
        <path fill="#FFF" d="M17 16.253L9.886 9.139a.5.5 0 0 0-.713-.001l-.035.035a.503.503 0 0 0 .001.713L16.253 17l-7.114 7.114a.5.5 0 0 0-.001.713l.035.035a.503.503 0 0 0 .713-.001L17 17.747l7.114 7.114a.5.5 0 0 0 .713.001l.035-.035a.503.503 0 0 0-.001-.713L17.747 17l7.114-7.114a.5.5 0 0 0 .001-.713l-.035-.035a.503.503 0 0 0-.713.001L17 16.253z"/>
    </g>
</svg>
