<?xml version="1.0" encoding="UTF-8"?>
<svg width="24px" height="24px" viewBox="0 0 24 24" version="1.1" xmlns="http://www.w3.org/2000/svg" xmlns:xlink="http://www.w3.org/1999/xlink">
    <!-- Generator: sketchtool 44.1 (41455) - http://www.bohemiancoding.com/sketch -->
    <title>D40723DC-2ACE-4669-ACE6-6F9A2F96EF60</title>
    <desc>Created with sketchtool.</desc>
    <defs></defs>
    <g id="设计稿" stroke="none" stroke-width="1" fill="none" fill-rule="evenodd">
        <g id="概况/概况" transform="translate(-924.000000, -1312.000000)">
            <g id="更多服务" transform="translate(180.000000, 1232.000000)">
                <g id="常用功能-copy-9" transform="translate(724.000000, 62.000000)">
                    <g id="icon_customizehome" transform="translate(20.000000, 18.000000)">
                        <rect id="Rectangle-2" fill="#2FCE63" fill-rule="evenodd" x="0" y="0" width="24" height="24" rx="2"></rect>
                        <path d="M14.5882238,6 C15.3681104,6 16,6.6202007 16,7.38461224 L16,16.6153741 C16,17.3797993 15.3681104,18 14.5882377,18 L9.41176226,18 C8.6319035,18 8,17.3797993 8,16.6153741 L8,7.38461224 C8,6.62018707 8.63188962,6 9.41176226,6 L14.5882238,6 Z M11.9995477,17.5 C12.2757119,17.5 12.4995592,17.2761873 12.4995477,17 C12.4995477,16.7238473 12.2757119,16.5 11.9995477,16.5 C11.7233835,16.5 11.4995477,16.7238358 11.4995477,17 C11.4995477,17.2761757 11.7233719,17.5 11.9995477,17.5 Z M15,15.7777843 L15,8.22221566 C15,8.09940087 14.8967899,8 14.7692381,8 L9.23077552,8 C9.10322375,8 9,8.09938776 9,8.22221566 L9,15.7777843 C9,15.9006122 9.10322375,16 9.23077552,16 L14.7692381,16 C14.8967899,16 15,15.9006122 15,15.7777843 Z M10.7821216,6.71126448 L10.7821216,6.71126448 C10.6440504,6.71126448 10.5321216,6.8231933 10.5321216,6.96126448 C10.5321216,7.09933567 10.6440504,7.21126448 10.7821216,7.21126448 L13.2821216,7.21126448 C13.4201928,7.21126448 13.5321216,7.09933567 13.5321216,6.96126448 L13.5321216,6.96126448 C13.5321216,6.8231933 13.4201928,6.71126448 13.2821216,6.71126448 L13.2821216,6.71126448 L10.7821216,6.71126448 Z" id="Combined-Shape" fill="#FFFFFF" fill-rule="nonzero"></path>
                    </g>
                </g>
            </g>
        </g>
    </g>
</svg>