<?xml version="1.0" encoding="UTF-8"?>
<svg width="24px" height="24px" viewBox="0 0 24 24" version="1.1" xmlns="http://www.w3.org/2000/svg" xmlns:xlink="http://www.w3.org/1999/xlink">
    <!-- Generator: sketchtool 44.1 (41455) - http://www.bohemiancoding.com/sketch -->
    <title>0CA03F84-6680-44E4-B4BC-85D6CACE803D</title>
    <desc>Created with sketchtool.</desc>
    <defs></defs>
    <g id="设计稿" stroke="none" stroke-width="1" fill="none" fill-rule="evenodd">
        <g id="概况/概况" transform="translate(-220.000000, -1214.000000)">
            <g id="常用功能-copy-8" transform="translate(200.000000, 1196.000000)">
                <g id="icon_小程序" transform="translate(20.000000, 18.000000)">
                    <rect id="Rectangle-2" fill="#2FCE63" x="0" y="0" width="24" height="24" rx="2"></rect>
                    <path d="M14.6000751,6 C13.9385158,6 13.3226286,6.19536099 12.7998497,6.52771425 C11.8409317,7.13731896 11.1999543,8.21518022 11.1999543,9.44440815 L11.1999543,14.5553741 C11.1999543,15.4759882 10.394126,16.2221496 9.40012088,16.2221496 C8.40572371,16.2221496 7.59989546,15.4759882 7.59989546,14.5553741 C7.59989546,13.9002505 8.00918016,13.3352935 8.60291739,13.0628335 C8.64584524,13.0432321 8.68916513,13.0245018 8.73385714,13.0081673 C9.10746664,12.841555 9.42815139,12.5285854 9.54733008,12.1653055 C9.72296183,11.6288795 9.39580849,11.1941631 8.81657655,11.1941631 C8.67230762,11.1941631 8.52588249,11.2211696 8.38455381,11.2701731 C8.38396576,11.2703909 8.38318169,11.2706087 8.38259364,11.2708265 C7.54540257,11.5378417 6.84620788,12.1237068 6.42673026,12.8888163 C6.15563796,13.3832081 6,13.9509964 6,14.5553741 C6,16.4547533 7.52521276,18 9.40012088,18 C10.0614842,18 10.6771754,17.804639 11.1999543,17.4722857 C12.1590683,16.8624632 12.7998497,15.784602 12.7998497,14.5553741 L12.7998497,9.44440815 C12.7998497,8.52401176 13.605874,7.77785038 14.6000751,7.77785038 C15.5940803,7.77785038 16.4001045,8.52401176 16.4001045,9.44440815 C16.4001045,10.1276271 15.9561247,10.7145813 15.3210278,10.9720135 C14.910959,11.1244691 14.5751809,11.4539911 14.4473774,11.8444953 C14.2723338,12.3785255 14.5979189,12.8112817 15.1746027,12.8112817 C15.3053464,12.8112817 15.4372662,12.7864532 15.5658537,12.7459436 C15.5868276,12.7394098 15.6076055,12.7322226 15.6283833,12.725471 C16.46087,12.4567135 17.1555563,11.8728085 17.5732697,11.1111837 C17.844362,10.6167919 18,10.0487858 18,9.44440815 C18,7.54524665 16.4745912,6 14.6000751,6" id="Fill-1" fill="#FFFFFF"></path>
                </g>
            </g>
        </g>
    </g>
</svg>